<svg xmlns="http://www.w3.org/2000/svg" viewBox="0 0 96 96" role="img"><title>construction:armchair</title><path d="M51.89,54.28L56.70,51.70L56.70,36.43Z" fill="#848073" stroke="#848073" stroke-width=".35" stroke-linejoin="round"/><path d="M48.32,50.80L51.89,54.28L51.89,39.02Z" fill="#959183" stroke="#959183" stroke-width=".35" stroke-linejoin="round"/><path d="M48.32,35.53L48.32,50.80L51.89,39.02Z" fill="#959183" stroke="#959183" stroke-width=".35" stroke-linejoin="round"/><path d="M51.89,39.02L51.89,54.28L56.70,36.43Z" fill="#848073" stroke="#848073" stroke-width=".35" stroke-linejoin="round"/><path d="M53.13,32.95L48.32,35.53L56.70,36.43Z" fill="#9e998a" stroke="#9e998a" stroke-width=".35" stroke-linejoin="round"/><path d="M48.32,35.53L51.89,39.02L56.70,36.43Z" fill="#9e998a" stroke="#9e998a" stroke-width=".35" stroke-linejoin="round"/><path d="M24.94,68.77L29.75,66.18L29.75,50.92Z" fill="#848073" stroke="#848073" stroke-width=".35" stroke-linejoin="round"/><path d="M21.37,65.28L24.94,68.77L24.94,53.50Z" fill="#959183" stroke="#959183" stroke-width=".35" stroke-linejoin="round"/><path d="M21.37,50.01L21.37,65.28L24.94,53.50Z" fill="#959183" stroke="#959183" stroke-width=".35" stroke-linejoin="round"/><path d="M72.58,74.52L77.39,71.93L77.39,56.67Z" fill="#848073" stroke="#848073" stroke-width=".35" stroke-linejoin="round"/><path d="M69.01,71.03L72.58,74.52L72.58,59.25Z" fill="#959183" stroke="#959183" stroke-width=".35" stroke-linejoin="round"/><path d="M24.94,53.50L24.94,68.77L29.75,50.92Z" fill="#848073" stroke="#848073" stroke-width=".35" stroke-linejoin="round"/><path d="M21.75,56.31L56.40,37.69L56.40,22.84Z" fill="#b8b3a1" stroke="#b8b3a1" stroke-width=".35" stroke-linejoin="round"/><path d="M52.79,27.54L15.26,47.71L80.62,54.75Z" fill="#9e998a" stroke="#9e998a" stroke-width=".35" stroke-linejoin="round"/><path d="M26.19,47.43L21.37,50.01L29.75,50.92Z" fill="#9e998a" stroke="#9e998a" stroke-width=".35" stroke-linejoin="round"/><path d="M69.01,55.76L69.01,71.03L72.58,59.25Z" fill="#959183" stroke="#959183" stroke-width=".35" stroke-linejoin="round"/><path d="M21.37,50.01L24.94,53.50L29.75,50.92Z" fill="#9e998a" stroke="#9e998a" stroke-width=".35" stroke-linejoin="round"/><path d="M72.58,59.25L72.58,74.52L77.39,56.67Z" fill="#848073" stroke="#848073" stroke-width=".35" stroke-linejoin="round"/><path d="M51.04,17.61L16.40,36.23L56.40,22.84Z" fill="#dbd5c0" stroke="#dbd5c0" stroke-width=".35" stroke-linejoin="round"/><path d="M73.82,53.18L69.01,55.76L77.39,56.67Z" fill="#9e998a" stroke="#9e998a" stroke-width=".35" stroke-linejoin="round"/><path d="M69.01,55.76L72.58,59.25L77.39,56.67Z" fill="#9e998a" stroke="#9e998a" stroke-width=".35" stroke-linejoin="round"/><path d="M16.40,51.08L21.75,56.31L21.75,41.46Z" fill="#d0c9b6" stroke="#d0c9b6" stroke-width=".35" stroke-linejoin="round"/><path d="M21.75,41.46L21.75,56.31L56.40,22.84Z" fill="#b8b3a1" stroke="#b8b3a1" stroke-width=".35" stroke-linejoin="round"/><path d="M15.26,47.71L15.26,53.49L43.08,74.92Z" fill="#959183" stroke="#959183" stroke-width=".35" stroke-linejoin="round"/><path d="M45.63,89.00L50.44,86.41L50.44,71.15Z" fill="#848073" stroke="#848073" stroke-width=".35" stroke-linejoin="round"/><path d="M47.85,10.10L47.85,30.73L74.97,36.62Z" fill="#959183" stroke="#959183" stroke-width=".35" stroke-linejoin="round"/><path d="M42.06,85.51L45.63,89.00L45.63,73.74Z" fill="#959183" stroke="#959183" stroke-width=".35" stroke-linejoin="round"/><path d="M16.40,36.23L16.40,51.08L21.75,41.46Z" fill="#d0c9b6" stroke="#d0c9b6" stroke-width=".35" stroke-linejoin="round"/><path d="M47.85,30.73L74.97,57.24L74.97,36.62Z" fill="#959183" stroke="#959183" stroke-width=".35" stroke-linejoin="round"/><path d="M16.40,36.23L21.75,41.46L56.40,22.84Z" fill="#dbd5c0" stroke="#dbd5c0" stroke-width=".35" stroke-linejoin="round"/><path d="M43.08,80.70L80.62,60.52L80.62,54.75Z" fill="#848073" stroke="#848073" stroke-width=".35" stroke-linejoin="round"/><path d="M15.26,47.71L43.08,74.92L80.62,54.75Z" fill="#9e998a" stroke="#9e998a" stroke-width=".35" stroke-linejoin="round"/><path d="M42.06,70.25L42.06,85.51L45.63,73.74Z" fill="#959183" stroke="#959183" stroke-width=".35" stroke-linejoin="round"/><path d="M53.63,7.00L47.85,10.10L80.74,33.51Z" fill="#9e998a" stroke="#9e998a" stroke-width=".35" stroke-linejoin="round"/><path d="M45.63,73.74L45.63,89.00L50.44,71.15Z" fill="#848073" stroke="#848073" stroke-width=".35" stroke-linejoin="round"/><path d="M15.26,53.49L43.08,80.70L43.08,74.92Z" fill="#959183" stroke="#959183" stroke-width=".35" stroke-linejoin="round"/><path d="M74.97,57.24L80.74,54.14L80.74,33.51Z" fill="#848073" stroke="#848073" stroke-width=".35" stroke-linejoin="round"/><path d="M43.87,77.94L78.51,59.32L78.51,44.47Z" fill="#b8b3a1" stroke="#b8b3a1" stroke-width=".35" stroke-linejoin="round"/><path d="M46.88,67.66L42.06,70.25L50.44,71.15Z" fill="#9e998a" stroke="#9e998a" stroke-width=".35" stroke-linejoin="round"/><path d="M42.06,70.25L45.63,73.74L50.44,71.15Z" fill="#9e998a" stroke="#9e998a" stroke-width=".35" stroke-linejoin="round"/><path d="M43.08,74.92L43.08,80.70L80.62,54.75Z" fill="#848073" stroke="#848073" stroke-width=".35" stroke-linejoin="round"/><path d="M47.85,10.10L74.97,36.62L80.74,33.51Z" fill="#9e998a" stroke="#9e998a" stroke-width=".35" stroke-linejoin="round"/><path d="M73.16,39.24L38.52,57.86L78.51,44.47Z" fill="#dbd5c0" stroke="#dbd5c0" stroke-width=".35" stroke-linejoin="round"/><path d="M74.97,36.62L74.97,57.24L80.74,33.51Z" fill="#848073" stroke="#848073" stroke-width=".35" stroke-linejoin="round"/><path d="M38.52,72.71L43.87,77.94L43.87,63.09Z" fill="#d0c9b6" stroke="#d0c9b6" stroke-width=".35" stroke-linejoin="round"/><path d="M43.87,63.09L43.87,77.94L78.51,44.47Z" fill="#b8b3a1" stroke="#b8b3a1" stroke-width=".35" stroke-linejoin="round"/><path d="M38.52,57.86L38.52,72.71L43.87,63.09Z" fill="#d0c9b6" stroke="#d0c9b6" stroke-width=".35" stroke-linejoin="round"/><path d="M38.52,57.86L43.87,63.09L78.51,44.47Z" fill="#dbd5c0" stroke="#dbd5c0" stroke-width=".35" stroke-linejoin="round"/></svg>