<svg xmlns="http://www.w3.org/2000/svg" viewBox="0 0 96 96" role="img"><title>construction:chess-table</title><path d="M51.65,47.72L56.11,45.33L56.11,16.02Z" fill="#886a46" stroke="#886a46" stroke-width=".35" stroke-linejoin="round"/><path d="M48.35,44.49L51.65,47.72L51.65,18.42Z" fill="#9a7950" stroke="#9a7950" stroke-width=".35" stroke-linejoin="round"/><path d="M48.35,15.18L48.35,44.49L51.65,18.42Z" fill="#9a7950" stroke="#9a7950" stroke-width=".35" stroke-linejoin="round"/><path d="M51.65,18.42L51.65,47.72L56.11,16.02Z" fill="#886a46" stroke="#886a46" stroke-width=".35" stroke-linejoin="round"/><path d="M18.96,65.30L23.41,62.90L23.41,33.59Z" fill="#886a46" stroke="#886a46" stroke-width=".35" stroke-linejoin="round"/><path d="M15.65,62.06L18.96,65.30L18.96,35.99Z" fill="#9a7950" stroke="#9a7950" stroke-width=".35" stroke-linejoin="round"/><path d="M52.80,12.79L48.35,15.18L56.11,16.02Z" fill="#a28055" stroke="#a28055" stroke-width=".35" stroke-linejoin="round"/><path d="M48.35,15.18L51.65,18.42L56.11,16.02Z" fill="#a28055" stroke="#a28055" stroke-width=".35" stroke-linejoin="round"/><path d="M75.89,71.43L80.35,69.03L80.35,39.72Z" fill="#886a46" stroke="#886a46" stroke-width=".35" stroke-linejoin="round"/><path d="M72.59,68.19L75.89,71.43L75.89,42.12Z" fill="#9a7950" stroke="#9a7950" stroke-width=".35" stroke-linejoin="round"/><path d="M15.65,32.76L15.65,62.06L18.96,35.99Z" fill="#9a7950" stroke="#9a7950" stroke-width=".35" stroke-linejoin="round"/><path d="M18.96,35.99L18.96,65.30L23.41,33.59Z" fill="#886a46" stroke="#886a46" stroke-width=".35" stroke-linejoin="round"/><path d="M48.13,14.56L44.27,16.63L51.00,17.36Z" fill="#466255" stroke="#466255" stroke-width=".35" stroke-linejoin="round"/><path d="M54.86,15.28L51.00,17.36L57.73,18.08Z" fill="#466255" stroke="#466255" stroke-width=".35" stroke-linejoin="round"/><path d="M44.27,16.63L44.27,16.89L47.13,19.44Z" fill="#425c50" stroke="#425c50" stroke-width=".35" stroke-linejoin="round"/><path d="M44.27,16.63L47.13,19.44L51.00,17.36Z" fill="#466255" stroke="#466255" stroke-width=".35" stroke-linejoin="round"/><path d="M47.13,19.69L51.00,17.61L51.00,17.36Z" fill="#395146" stroke="#395146" stroke-width=".35" stroke-linejoin="round"/><path d="M51.00,17.36L51.00,17.61L53.86,20.16Z" fill="#425c50" stroke="#425c50" stroke-width=".35" stroke-linejoin="round"/><path d="M44.27,16.89L47.13,19.69L47.13,19.44Z" fill="#425c50" stroke="#425c50" stroke-width=".35" stroke-linejoin="round"/><path d="M47.39,18.18L49.27,17.17L49.27,14.62Z" fill="#c2b8a0" stroke="#c2b8a0" stroke-width=".35" stroke-linejoin="round"/><path d="M51.00,17.36L53.86,20.16L57.73,18.08Z" fill="#466255" stroke="#466255" stroke-width=".35" stroke-linejoin="round"/><path d="M53.86,20.41L57.73,18.34L57.73,18.08Z" fill="#395146" stroke="#395146" stroke-width=".35" stroke-linejoin="round"/><path d="M47.13,19.44L47.13,19.69L51.00,17.36Z" fill="#395146" stroke="#395146" stroke-width=".35" stroke-linejoin="round"/><path d="M45.99,16.82L47.39,18.18L47.39,15.64Z" fill="#dbd0b4" stroke="#dbd0b4" stroke-width=".35" stroke-linejoin="round"/><path d="M51.00,17.61L53.86,20.41L53.86,20.16Z" fill="#425c50" stroke="#425c50" stroke-width=".35" stroke-linejoin="round"/><path d="M45.99,14.27L45.99,16.82L47.39,15.64Z" fill="#dbd0b4" stroke="#dbd0b4" stroke-width=".35" stroke-linejoin="round"/><path d="M54.12,18.91L56.00,17.90L56.00,15.35Z" fill="#c2b8a0" stroke="#c2b8a0" stroke-width=".35" stroke-linejoin="round"/><path d="M53.86,20.16L53.86,20.41L57.73,18.08Z" fill="#395146" stroke="#395146" stroke-width=".35" stroke-linejoin="round"/><path d="M52.72,17.54L54.12,18.91L54.12,16.36Z" fill="#dbd0b4" stroke="#dbd0b4" stroke-width=".35" stroke-linejoin="round"/><path d="M47.88,13.26L45.99,14.27L49.27,14.62Z" fill="#e7dbbe" stroke="#e7dbbe" stroke-width=".35" stroke-linejoin="round"/><path d="M47.39,15.64L47.39,18.18L49.27,14.62Z" fill="#c2b8a0" stroke="#c2b8a0" stroke-width=".35" stroke-linejoin="round"/><path d="M52.72,15.00L52.72,17.54L54.12,16.36Z" fill="#dbd0b4" stroke="#dbd0b4" stroke-width=".35" stroke-linejoin="round"/><path d="M54.61,13.98L52.72,15.00L56.00,15.35Z" fill="#e7dbbe" stroke="#e7dbbe" stroke-width=".35" stroke-linejoin="round"/><path d="M72.59,38.89L72.59,68.19L75.89,42.12Z" fill="#9a7950" stroke="#9a7950" stroke-width=".35" stroke-linejoin="round"/><path d="M45.99,14.27L47.39,15.64L49.27,14.62Z" fill="#e7dbbe" stroke="#e7dbbe" stroke-width=".35" stroke-linejoin="round"/><path d="M40.41,18.71L36.54,20.79L43.27,21.51Z" fill="#466255" stroke="#466255" stroke-width=".35" stroke-linejoin="round"/><path d="M54.12,16.36L54.12,18.91L56.00,15.35Z" fill="#c2b8a0" stroke="#c2b8a0" stroke-width=".35" stroke-linejoin="round"/><path d="M52.72,15.00L54.12,16.36L56.00,15.35Z" fill="#e7dbbe" stroke="#e7dbbe" stroke-width=".35" stroke-linejoin="round"/><path d="M47.13,19.44L43.27,21.51L50.00,22.24Z" fill="#466255" stroke="#466255" stroke-width=".35" stroke-linejoin="round"/><path d="M75.89,42.12L75.89,71.43L80.35,39.72Z" fill="#886a46" stroke="#886a46" stroke-width=".35" stroke-linejoin="round"/><path d="M36.54,20.79L36.54,21.04L39.41,23.59Z" fill="#425c50" stroke="#425c50" stroke-width=".35" stroke-linejoin="round"/><path d="M53.86,20.16L50.00,22.24L56.73,22.96Z" fill="#466255" stroke="#466255" stroke-width=".35" stroke-linejoin="round"/><path d="M53.38,7.00L11.77,29.37L84.23,37.17Z" fill="#a28055" stroke="#a28055" stroke-width=".35" stroke-linejoin="round"/><path d="M36.54,20.79L39.41,23.59L43.27,21.51Z" fill="#466255" stroke="#466255" stroke-width=".35" stroke-linejoin="round"/><path d="M56.98,21.71L58.87,20.70L58.87,18.15Z" fill="#c2b8a0" stroke="#c2b8a0" stroke-width=".35" stroke-linejoin="round"/><path d="M39.41,23.84L43.27,21.77L43.27,21.51Z" fill="#395146" stroke="#395146" stroke-width=".35" stroke-linejoin="round"/><path d="M55.59,20.35L56.98,21.71L56.98,19.16Z" fill="#dbd0b4" stroke="#dbd0b4" stroke-width=".35" stroke-linejoin="round"/><path d="M43.27,21.51L43.27,21.77L46.13,24.31Z" fill="#425c50" stroke="#425c50" stroke-width=".35" stroke-linejoin="round"/><path d="M36.54,21.04L39.41,23.84L39.41,23.59Z" fill="#425c50" stroke="#425c50" stroke-width=".35" stroke-linejoin="round"/><path d="M60.59,20.88L56.73,22.96L63.46,23.69Z" fill="#466255" stroke="#466255" stroke-width=".35" stroke-linejoin="round"/><path d="M55.59,17.80L55.59,20.35L56.98,19.16Z" fill="#dbd0b4" stroke="#dbd0b4" stroke-width=".35" stroke-linejoin="round"/><path d="M43.27,21.51L46.13,24.31L50.00,22.24Z" fill="#466255" stroke="#466255" stroke-width=".35" stroke-linejoin="round"/><path d="M46.13,24.57L50.00,22.49L50.00,22.24Z" fill="#395146" stroke="#395146" stroke-width=".35" stroke-linejoin="round"/><path d="M39.41,23.59L39.41,23.84L43.27,21.51Z" fill="#395146" stroke="#395146" stroke-width=".35" stroke-linejoin="round"/><path d="M57.47,16.79L55.59,17.80L58.87,18.15Z" fill="#e7dbbe" stroke="#e7dbbe" stroke-width=".35" stroke-linejoin="round"/><path d="M50.00,22.24L50.00,22.49L52.86,25.04Z" fill="#425c50" stroke="#425c50" stroke-width=".35" stroke-linejoin="round"/><path d="M43.27,21.77L46.13,24.57L46.13,24.31Z" fill="#425c50" stroke="#425c50" stroke-width=".35" stroke-linejoin="round"/><path d="M56.98,19.16L56.98,21.71L58.87,18.15Z" fill="#c2b8a0" stroke="#c2b8a0" stroke-width=".35" stroke-linejoin="round"/><path d="M20.11,30.36L15.65,32.76L23.41,33.59Z" fill="#a28055" stroke="#a28055" stroke-width=".35" stroke-linejoin="round"/><path d="M50.00,22.24L52.86,25.04L56.73,22.96Z" fill="#466255" stroke="#466255" stroke-width=".35" stroke-linejoin="round"/><path d="M52.86,25.29L56.73,23.22L56.73,22.96Z" fill="#395146" stroke="#395146" stroke-width=".35" stroke-linejoin="round"/><path d="M46.13,24.31L46.13,24.57L50.00,22.24Z" fill="#395146" stroke="#395146" stroke-width=".35" stroke-linejoin="round"/><path d="M55.59,17.80L56.98,19.16L58.87,18.15Z" fill="#e7dbbe" stroke="#e7dbbe" stroke-width=".35" stroke-linejoin="round"/><path d="M56.73,22.96L56.73,23.22L59.59,25.76Z" fill="#425c50" stroke="#425c50" stroke-width=".35" stroke-linejoin="round"/><path d="M50.00,22.49L52.86,25.29L52.86,25.04Z" fill="#425c50" stroke="#425c50" stroke-width=".35" stroke-linejoin="round"/><path d="M56.73,22.96L59.59,25.76L63.46,23.69Z" fill="#466255" stroke="#466255" stroke-width=".35" stroke-linejoin="round"/><path d="M59.59,26.02L63.46,23.94L63.46,23.69Z" fill="#395146" stroke="#395146" stroke-width=".35" stroke-linejoin="round"/><path d="M52.86,25.04L52.86,25.29L56.73,22.96Z" fill="#395146" stroke="#395146" stroke-width=".35" stroke-linejoin="round"/><path d="M32.68,22.86L28.81,24.94L35.54,25.67Z" fill="#466255" stroke="#466255" stroke-width=".35" stroke-linejoin="round"/><path d="M52.42,10.63L18.24,29.00L77.76,35.41Z" fill="#d2c5a2" stroke="#d2c5a2" stroke-width=".35" stroke-linejoin="round"/><path d="M56.73,23.22L59.59,26.02L59.59,25.76Z" fill="#425c50" stroke="#425c50" stroke-width=".35" stroke-linejoin="round"/><path d="M59.59,25.76L59.59,26.02L63.46,23.69Z" fill="#395146" stroke="#395146" stroke-width=".35" stroke-linejoin="round"/><path d="M15.65,32.76L18.96,35.99L23.41,33.59Z" fill="#a28055" stroke="#a28055" stroke-width=".35" stroke-linejoin="round"/><path d="M39.41,23.59L35.54,25.67L42.27,26.39Z" fill="#466255" stroke="#466255" stroke-width=".35" stroke-linejoin="round"/><path d="M28.81,24.94L28.81,25.20L31.68,27.74Z" fill="#425c50" stroke="#425c50" stroke-width=".35" stroke-linejoin="round"/><path d="M46.13,24.31L42.27,26.39L49.00,27.11Z" fill="#466255" stroke="#466255" stroke-width=".35" stroke-linejoin="round"/><path d="M28.81,24.94L31.68,27.74L35.54,25.67Z" fill="#466255" stroke="#466255" stroke-width=".35" stroke-linejoin="round"/><path d="M31.68,28.00L35.54,25.92L35.54,25.67Z" fill="#395146" stroke="#395146" stroke-width=".35" stroke-linejoin="round"/><path d="M35.54,25.67L35.54,25.92L38.41,28.47Z" fill="#425c50" stroke="#425c50" stroke-width=".35" stroke-linejoin="round"/><path d="M28.81,25.20L31.68,28.00L31.68,27.74Z" fill="#425c50" stroke="#425c50" stroke-width=".35" stroke-linejoin="round"/><path d="M52.86,25.04L49.00,27.11L55.73,27.84Z" fill="#466255" stroke="#466255" stroke-width=".35" stroke-linejoin="round"/><path d="M35.54,25.67L38.41,28.47L42.27,26.39Z" fill="#466255" stroke="#466255" stroke-width=".35" stroke-linejoin="round"/><path d="M55.98,26.59L57.87,25.58L57.87,23.03Z" fill="#c2b8a0" stroke="#c2b8a0" stroke-width=".35" stroke-linejoin="round"/><path d="M38.41,28.72L42.27,26.65L42.27,26.39Z" fill="#395146" stroke="#395146" stroke-width=".35" stroke-linejoin="round"/><path d="M31.68,27.74L31.68,28.00L35.54,25.67Z" fill="#395146" stroke="#395146" stroke-width=".35" stroke-linejoin="round"/><path d="M54.59,25.22L55.98,26.59L55.98,24.04Z" fill="#dbd0b4" stroke="#dbd0b4" stroke-width=".35" stroke-linejoin="round"/><path d="M42.27,26.39L42.27,26.65L45.14,29.19Z" fill="#425c50" stroke="#425c50" stroke-width=".35" stroke-linejoin="round"/><path d="M35.54,25.92L38.41,28.72L38.41,28.47Z" fill="#425c50" stroke="#425c50" stroke-width=".35" stroke-linejoin="round"/><path d="M59.59,25.76L55.73,27.84L62.46,28.56Z" fill="#466255" stroke="#466255" stroke-width=".35" stroke-linejoin="round"/><path d="M43.20,89.00L47.65,86.60L47.65,57.30Z" fill="#886a46" stroke="#886a46" stroke-width=".35" stroke-linejoin="round"/><path d="M54.59,22.68L54.59,25.22L55.98,24.04Z" fill="#dbd0b4" stroke="#dbd0b4" stroke-width=".35" stroke-linejoin="round"/><path d="M42.27,26.39L45.14,29.19L49.00,27.11Z" fill="#466255" stroke="#466255" stroke-width=".35" stroke-linejoin="round"/><path d="M62.71,27.31L64.60,26.30L64.60,23.75Z" fill="#c2b8a0" stroke="#c2b8a0" stroke-width=".35" stroke-linejoin="round"/><path d="M45.14,29.45L49.00,27.37L49.00,27.11Z" fill="#395146" stroke="#395146" stroke-width=".35" stroke-linejoin="round"/><path d="M38.41,28.47L38.41,28.72L42.27,26.39Z" fill="#395146" stroke="#395146" stroke-width=".35" stroke-linejoin="round"/><path d="M61.32,25.95L62.71,27.31L62.71,24.76Z" fill="#dbd0b4" stroke="#dbd0b4" stroke-width=".35" stroke-linejoin="round"/><path d="M56.47,21.66L54.59,22.68L57.87,23.03Z" fill="#e7dbbe" stroke="#e7dbbe" stroke-width=".35" stroke-linejoin="round"/><path d="M49.00,27.11L49.00,27.37L51.86,29.92Z" fill="#425c50" stroke="#425c50" stroke-width=".35" stroke-linejoin="round"/><path d="M39.89,85.77L43.20,89.00L43.20,59.69Z" fill="#9a7950" stroke="#9a7950" stroke-width=".35" stroke-linejoin="round"/><path d="M42.27,26.65L45.14,29.45L45.14,29.19Z" fill="#425c50" stroke="#425c50" stroke-width=".35" stroke-linejoin="round"/><path d="M66.32,26.49L62.46,28.56L69.19,29.29Z" fill="#466255" stroke="#466255" stroke-width=".35" stroke-linejoin="round"/><path d="M55.98,24.04L55.98,26.59L57.87,23.03Z" fill="#c2b8a0" stroke="#c2b8a0" stroke-width=".35" stroke-linejoin="round"/><path d="M61.32,23.40L61.32,25.95L62.71,24.76Z" fill="#dbd0b4" stroke="#dbd0b4" stroke-width=".35" stroke-linejoin="round"/><path d="M49.00,27.11L51.86,29.92L55.73,27.84Z" fill="#466255" stroke="#466255" stroke-width=".35" stroke-linejoin="round"/><path d="M51.86,30.17L55.73,28.09L55.73,27.84Z" fill="#395146" stroke="#395146" stroke-width=".35" stroke-linejoin="round"/><path d="M45.14,29.19L45.14,29.45L49.00,27.11Z" fill="#395146" stroke="#395146" stroke-width=".35" stroke-linejoin="round"/><path d="M63.20,22.39L61.32,23.40L64.60,23.75Z" fill="#e7dbbe" stroke="#e7dbbe" stroke-width=".35" stroke-linejoin="round"/><path d="M54.59,22.68L55.98,24.04L57.87,23.03Z" fill="#e7dbbe" stroke="#e7dbbe" stroke-width=".35" stroke-linejoin="round"/><path d="M24.95,27.02L21.09,29.10L27.81,29.82Z" fill="#466255" stroke="#466255" stroke-width=".35" stroke-linejoin="round"/><path d="M55.73,27.84L55.73,28.09L58.59,30.64Z" fill="#425c50" stroke="#425c50" stroke-width=".35" stroke-linejoin="round"/><path d="M49.00,27.37L51.86,30.17L51.86,29.92Z" fill="#425c50" stroke="#425c50" stroke-width=".35" stroke-linejoin="round"/><path d="M28.07,28.57L29.95,27.56L29.95,25.01Z" fill="#293531" stroke="#293531" stroke-width=".35" stroke-linejoin="round"/><path d="M62.71,24.76L62.71,27.31L64.60,23.75Z" fill="#c2b8a0" stroke="#c2b8a0" stroke-width=".35" stroke-linejoin="round"/><path d="M55.73,27.84L58.59,30.64L62.46,28.56Z" fill="#466255" stroke="#466255" stroke-width=".35" stroke-linejoin="round"/><path d="M26.67,27.20L28.07,28.57L28.07,26.02Z" fill="#2f3d39" stroke="#2f3d39" stroke-width=".35" stroke-linejoin="round"/><path d="M58.59,30.90L62.46,28.82L62.46,28.56Z" fill="#395146" stroke="#395146" stroke-width=".35" stroke-linejoin="round"/><path d="M51.86,29.92L51.86,30.17L55.73,27.84Z" fill="#395146" stroke="#395146" stroke-width=".35" stroke-linejoin="round"/><path d="M61.32,23.40L62.71,24.76L64.60,23.75Z" fill="#e7dbbe" stroke="#e7dbbe" stroke-width=".35" stroke-linejoin="round"/><path d="M31.68,27.74L27.81,29.82L34.54,30.54Z" fill="#466255" stroke="#466255" stroke-width=".35" stroke-linejoin="round"/><path d="M62.46,28.56L62.46,28.82L65.32,31.37Z" fill="#425c50" stroke="#425c50" stroke-width=".35" stroke-linejoin="round"/><path d="M77.04,36.49L72.59,38.89L80.35,39.72Z" fill="#a28055" stroke="#a28055" stroke-width=".35" stroke-linejoin="round"/><path d="M55.73,28.09L58.59,30.90L58.59,30.64Z" fill="#425c50" stroke="#425c50" stroke-width=".35" stroke-linejoin="round"/><path d="M26.67,24.66L26.67,27.20L28.07,26.02Z" fill="#2f3d39" stroke="#2f3d39" stroke-width=".35" stroke-linejoin="round"/><path d="M62.46,28.56L65.32,31.37L69.19,29.29Z" fill="#466255" stroke="#466255" stroke-width=".35" stroke-linejoin="round"/><path d="M65.32,31.62L69.19,29.54L69.19,29.29Z" fill="#395146" stroke="#395146" stroke-width=".35" stroke-linejoin="round"/><path d="M28.56,23.64L26.67,24.66L29.95,25.01Z" fill="#33413c" stroke="#33413c" stroke-width=".35" stroke-linejoin="round"/><path d="M58.59,30.64L58.59,30.90L62.46,28.56Z" fill="#395146" stroke="#395146" stroke-width=".35" stroke-linejoin="round"/><path d="M21.09,29.10L21.09,29.35L23.95,31.90Z" fill="#425c50" stroke="#425c50" stroke-width=".35" stroke-linejoin="round"/><path d="M38.41,28.47L34.54,30.54L41.27,31.27Z" fill="#466255" stroke="#466255" stroke-width=".35" stroke-linejoin="round"/><path d="M28.07,26.02L28.07,28.57L29.95,25.01Z" fill="#293531" stroke="#293531" stroke-width=".35" stroke-linejoin="round"/><path d="M62.46,28.82L65.32,31.62L65.32,31.37Z" fill="#425c50" stroke="#425c50" stroke-width=".35" stroke-linejoin="round"/><path d="M21.09,29.10L23.95,31.90L27.81,29.82Z" fill="#466255" stroke="#466255" stroke-width=".35" stroke-linejoin="round"/><path d="M23.95,32.15L27.81,30.07L27.81,29.82Z" fill="#395146" stroke="#395146" stroke-width=".35" stroke-linejoin="round"/><path d="M65.58,30.11L67.46,29.10L67.46,26.55Z" fill="#c2b8a0" stroke="#c2b8a0" stroke-width=".35" stroke-linejoin="round"/><path d="M65.32,31.37L65.32,31.62L69.19,29.29Z" fill="#395146" stroke="#395146" stroke-width=".35" stroke-linejoin="round"/><path d="M26.67,24.66L28.07,26.02L29.95,25.01Z" fill="#33413c" stroke="#33413c" stroke-width=".35" stroke-linejoin="round"/><path d="M64.18,28.75L65.58,30.11L65.58,27.57Z" fill="#dbd0b4" stroke="#dbd0b4" stroke-width=".35" stroke-linejoin="round"/><path d="M27.81,29.82L27.81,30.07L30.68,32.62Z" fill="#425c50" stroke="#425c50" stroke-width=".35" stroke-linejoin="round"/><path d="M21.09,29.35L23.95,32.15L23.95,31.90Z" fill="#425c50" stroke="#425c50" stroke-width=".35" stroke-linejoin="round"/><path d="M45.14,29.19L41.27,31.27L48.00,31.99Z" fill="#466255" stroke="#466255" stroke-width=".35" stroke-linejoin="round"/><path d="M27.81,29.82L30.68,32.62L34.54,30.54Z" fill="#466255" stroke="#466255" stroke-width=".35" stroke-linejoin="round"/><path d="M30.68,32.88L34.54,30.80L34.54,30.54Z" fill="#395146" stroke="#395146" stroke-width=".35" stroke-linejoin="round"/><path d="M64.18,26.20L64.18,28.75L65.58,27.57Z" fill="#dbd0b4" stroke="#dbd0b4" stroke-width=".35" stroke-linejoin="round"/><path d="M23.95,31.90L23.95,32.15L27.81,29.82Z" fill="#395146" stroke="#395146" stroke-width=".35" stroke-linejoin="round"/><path d="M72.59,38.89L75.89,42.12L80.35,39.72Z" fill="#a28055" stroke="#a28055" stroke-width=".35" stroke-linejoin="round"/><path d="M66.06,25.19L64.18,26.20L67.46,26.55Z" fill="#e7dbbe" stroke="#e7dbbe" stroke-width=".35" stroke-linejoin="round"/><path d="M34.54,30.54L34.54,30.80L37.41,33.35Z" fill="#425c50" stroke="#425c50" stroke-width=".35" stroke-linejoin="round"/><path d="M27.81,30.07L30.68,32.88L30.68,32.62Z" fill="#425c50" stroke="#425c50" stroke-width=".35" stroke-linejoin="round"/><path d="M51.86,29.92L48.00,31.99L54.73,32.72Z" fill="#466255" stroke="#466255" stroke-width=".35" stroke-linejoin="round"/><path d="M65.58,27.57L65.58,30.11L67.46,26.55Z" fill="#c2b8a0" stroke="#c2b8a0" stroke-width=".35" stroke-linejoin="round"/><path d="M34.54,30.54L37.41,33.35L41.27,31.27Z" fill="#466255" stroke="#466255" stroke-width=".35" stroke-linejoin="round"/><path d="M37.41,33.60L41.27,31.52L41.27,31.27Z" fill="#395146" stroke="#395146" stroke-width=".35" stroke-linejoin="round"/><path d="M30.68,32.62L30.68,32.88L34.54,30.54Z" fill="#395146" stroke="#395146" stroke-width=".35" stroke-linejoin="round"/><path d="M41.27,31.27L41.27,31.52L44.14,34.07Z" fill="#425c50" stroke="#425c50" stroke-width=".35" stroke-linejoin="round"/><path d="M64.18,26.20L65.58,27.57L67.46,26.55Z" fill="#e7dbbe" stroke="#e7dbbe" stroke-width=".35" stroke-linejoin="round"/><path d="M34.54,30.80L37.41,33.60L37.41,33.35Z" fill="#425c50" stroke="#425c50" stroke-width=".35" stroke-linejoin="round"/><path d="M58.59,30.64L54.73,32.72L61.46,33.44Z" fill="#466255" stroke="#466255" stroke-width=".35" stroke-linejoin="round"/><path d="M41.27,31.27L44.14,34.07L48.00,31.99Z" fill="#466255" stroke="#466255" stroke-width=".35" stroke-linejoin="round"/><path d="M44.14,34.32L48.00,32.25L48.00,31.99Z" fill="#395146" stroke="#395146" stroke-width=".35" stroke-linejoin="round"/><path d="M37.41,33.35L37.41,33.60L41.27,31.27Z" fill="#395146" stroke="#395146" stroke-width=".35" stroke-linejoin="round"/><path d="M48.00,31.99L48.00,32.25L50.86,34.79Z" fill="#425c50" stroke="#425c50" stroke-width=".35" stroke-linejoin="round"/><path d="M41.27,31.52L44.14,34.32L44.14,34.07Z" fill="#425c50" stroke="#425c50" stroke-width=".35" stroke-linejoin="round"/><path d="M65.32,31.37L61.46,33.44L68.19,34.17Z" fill="#466255" stroke="#466255" stroke-width=".35" stroke-linejoin="round"/><path d="M48.00,31.99L50.86,34.79L54.73,32.72Z" fill="#466255" stroke="#466255" stroke-width=".35" stroke-linejoin="round"/><path d="M50.86,35.05L54.73,32.97L54.73,32.72Z" fill="#395146" stroke="#395146" stroke-width=".35" stroke-linejoin="round"/><path d="M44.14,34.07L44.14,34.32L48.00,31.99Z" fill="#395146" stroke="#395146" stroke-width=".35" stroke-linejoin="round"/><path d="M54.73,32.72L54.73,32.97L57.59,35.52Z" fill="#425c50" stroke="#425c50" stroke-width=".35" stroke-linejoin="round"/><path d="M48.00,32.25L50.86,35.05L50.86,34.79Z" fill="#425c50" stroke="#425c50" stroke-width=".35" stroke-linejoin="round"/><path d="M27.07,33.45L28.95,32.44L28.95,29.89Z" fill="#293531" stroke="#293531" stroke-width=".35" stroke-linejoin="round"/><path d="M72.05,32.09L68.19,34.17L74.91,34.89Z" fill="#466255" stroke="#466255" stroke-width=".35" stroke-linejoin="round"/><path d="M54.73,32.72L57.59,35.52L61.46,33.44Z" fill="#466255" stroke="#466255" stroke-width=".35" stroke-linejoin="round"/><path d="M25.68,32.08L27.07,33.45L27.07,30.90Z" fill="#2f3d39" stroke="#2f3d39" stroke-width=".35" stroke-linejoin="round"/><path d="M57.59,35.77L61.46,33.70L61.46,33.44Z" fill="#395146" stroke="#395146" stroke-width=".35" stroke-linejoin="round"/><path d="M50.86,34.79L50.86,35.05L54.73,32.72Z" fill="#395146" stroke="#395146" stroke-width=".35" stroke-linejoin="round"/><path d="M30.68,32.62L26.81,34.70L33.54,35.42Z" fill="#466255" stroke="#466255" stroke-width=".35" stroke-linejoin="round"/><path d="M61.46,33.44L61.46,33.70L64.32,36.24Z" fill="#425c50" stroke="#425c50" stroke-width=".35" stroke-linejoin="round"/><path d="M54.73,32.97L57.59,35.77L57.59,35.52Z" fill="#425c50" stroke="#425c50" stroke-width=".35" stroke-linejoin="round"/><path d="M25.68,29.53L25.68,32.08L27.07,30.90Z" fill="#2f3d39" stroke="#2f3d39" stroke-width=".35" stroke-linejoin="round"/><path d="M61.46,33.44L64.32,36.24L68.19,34.17Z" fill="#466255" stroke="#466255" stroke-width=".35" stroke-linejoin="round"/><path d="M64.32,36.50L68.19,34.42L68.19,34.17Z" fill="#395146" stroke="#395146" stroke-width=".35" stroke-linejoin="round"/><path d="M27.56,28.52L25.68,29.53L28.95,29.89Z" fill="#33413c" stroke="#33413c" stroke-width=".35" stroke-linejoin="round"/><path d="M57.59,35.52L57.59,35.77L61.46,33.44Z" fill="#395146" stroke="#395146" stroke-width=".35" stroke-linejoin="round"/><path d="M37.41,33.35L33.54,35.42L40.27,36.15Z" fill="#466255" stroke="#466255" stroke-width=".35" stroke-linejoin="round"/><path d="M27.07,30.90L27.07,33.45L28.95,29.89Z" fill="#293531" stroke="#293531" stroke-width=".35" stroke-linejoin="round"/><path d="M68.19,34.17L68.19,34.42L71.05,36.97Z" fill="#425c50" stroke="#425c50" stroke-width=".35" stroke-linejoin="round"/><path d="M61.46,33.70L64.32,36.50L64.32,36.24Z" fill="#425c50" stroke="#425c50" stroke-width=".35" stroke-linejoin="round"/><path d="M64.58,34.99L66.46,33.98L66.46,31.43Z" fill="#c2b8a0" stroke="#c2b8a0" stroke-width=".35" stroke-linejoin="round"/><path d="M68.19,34.17L71.05,36.97L74.91,34.89Z" fill="#466255" stroke="#466255" stroke-width=".35" stroke-linejoin="round"/><path d="M71.05,37.22L74.91,35.15L74.91,34.89Z" fill="#395146" stroke="#395146" stroke-width=".35" stroke-linejoin="round"/><path d="M64.32,36.24L64.32,36.50L68.19,34.17Z" fill="#395146" stroke="#395146" stroke-width=".35" stroke-linejoin="round"/><path d="M25.68,29.53L27.07,30.90L28.95,29.89Z" fill="#33413c" stroke="#33413c" stroke-width=".35" stroke-linejoin="round"/><path d="M63.18,33.63L64.58,34.99L64.58,32.44Z" fill="#dbd0b4" stroke="#dbd0b4" stroke-width=".35" stroke-linejoin="round"/><path d="M26.81,34.70L26.81,34.95L29.68,37.50Z" fill="#425c50" stroke="#425c50" stroke-width=".35" stroke-linejoin="round"/><path d="M11.77,29.37L11.77,32.34L42.62,59.53Z" fill="#9a7950" stroke="#9a7950" stroke-width=".35" stroke-linejoin="round"/><path d="M44.14,34.07L40.27,36.15L47.00,36.87Z" fill="#466255" stroke="#466255" stroke-width=".35" stroke-linejoin="round"/><path d="M68.19,34.42L71.05,37.22L71.05,36.97Z" fill="#425c50" stroke="#425c50" stroke-width=".35" stroke-linejoin="round"/><path d="M26.81,34.70L29.68,37.50L33.54,35.42Z" fill="#466255" stroke="#466255" stroke-width=".35" stroke-linejoin="round"/><path d="M29.68,37.75L33.54,35.68L33.54,35.42Z" fill="#395146" stroke="#395146" stroke-width=".35" stroke-linejoin="round"/><path d="M63.18,31.08L63.18,33.63L64.58,32.44Z" fill="#dbd0b4" stroke="#dbd0b4" stroke-width=".35" stroke-linejoin="round"/><path d="M71.31,35.72L73.19,34.71L73.19,32.16Z" fill="#c2b8a0" stroke="#c2b8a0" stroke-width=".35" stroke-linejoin="round"/><path d="M71.05,36.97L71.05,37.22L74.91,34.89Z" fill="#395146" stroke="#395146" stroke-width=".35" stroke-linejoin="round"/><path d="M69.91,34.35L71.31,35.72L71.31,33.17Z" fill="#dbd0b4" stroke="#dbd0b4" stroke-width=".35" stroke-linejoin="round"/><path d="M65.06,30.07L63.18,31.08L66.46,31.43Z" fill="#e7dbbe" stroke="#e7dbbe" stroke-width=".35" stroke-linejoin="round"/><path d="M33.54,35.42L33.54,35.68L36.41,38.22Z" fill="#425c50" stroke="#425c50" stroke-width=".35" stroke-linejoin="round"/><path d="M26.81,34.95L29.68,37.75L29.68,37.50Z" fill="#425c50" stroke="#425c50" stroke-width=".35" stroke-linejoin="round"/><path d="M50.86,34.79L47.00,36.87L53.73,37.60Z" fill="#466255" stroke="#466255" stroke-width=".35" stroke-linejoin="round"/><path d="M18.24,29.00L18.24,30.02L43.58,53.78Z" fill="#c7bb99" stroke="#c7bb99" stroke-width=".35" stroke-linejoin="round"/><path d="M29.94,36.25L31.82,35.24L31.82,32.69Z" fill="#293531" stroke="#293531" stroke-width=".35" stroke-linejoin="round"/><path d="M64.58,32.44L64.58,34.99L66.46,31.43Z" fill="#c2b8a0" stroke="#c2b8a0" stroke-width=".35" stroke-linejoin="round"/><path d="M33.54,35.42L36.41,38.22L40.27,36.15Z" fill="#466255" stroke="#466255" stroke-width=".35" stroke-linejoin="round"/><path d="M36.41,38.48L40.27,36.40L40.27,36.15Z" fill="#395146" stroke="#395146" stroke-width=".35" stroke-linejoin="round"/><path d="M69.91,31.80L69.91,34.35L71.31,33.17Z" fill="#dbd0b4" stroke="#dbd0b4" stroke-width=".35" stroke-linejoin="round"/><path d="M29.68,37.50L29.68,37.75L33.54,35.42Z" fill="#395146" stroke="#395146" stroke-width=".35" stroke-linejoin="round"/><path d="M28.54,34.88L29.94,36.25L29.94,33.70Z" fill="#2f3d39" stroke="#2f3d39" stroke-width=".35" stroke-linejoin="round"/><path d="M71.79,30.79L69.91,31.80L73.19,32.16Z" fill="#e7dbbe" stroke="#e7dbbe" stroke-width=".35" stroke-linejoin="round"/><path d="M40.27,36.15L40.27,36.40L43.14,38.95Z" fill="#425c50" stroke="#425c50" stroke-width=".35" stroke-linejoin="round"/><path d="M63.18,31.08L64.58,32.44L66.46,31.43Z" fill="#e7dbbe" stroke="#e7dbbe" stroke-width=".35" stroke-linejoin="round"/><path d="M33.54,35.68L36.41,38.48L36.41,38.22Z" fill="#425c50" stroke="#425c50" stroke-width=".35" stroke-linejoin="round"/><path d="M57.59,35.52L53.73,37.60L60.46,38.32Z" fill="#466255" stroke="#466255" stroke-width=".35" stroke-linejoin="round"/><path d="M28.54,32.34L28.54,34.88L29.94,33.70Z" fill="#2f3d39" stroke="#2f3d39" stroke-width=".35" stroke-linejoin="round"/><path d="M36.66,36.97L38.55,35.96L38.55,33.41Z" fill="#293531" stroke="#293531" stroke-width=".35" stroke-linejoin="round"/><path d="M71.31,33.17L71.31,35.72L73.19,32.16Z" fill="#c2b8a0" stroke="#c2b8a0" stroke-width=".35" stroke-linejoin="round"/><path d="M40.27,36.15L43.14,38.95L47.00,36.87Z" fill="#466255" stroke="#466255" stroke-width=".35" stroke-linejoin="round"/><path d="M43.14,39.20L47.00,37.13L47.00,36.87Z" fill="#395146" stroke="#395146" stroke-width=".35" stroke-linejoin="round"/><path d="M36.41,38.22L36.41,38.48L40.27,36.15Z" fill="#395146" stroke="#395146" stroke-width=".35" stroke-linejoin="round"/><path d="M35.27,35.61L36.66,36.97L36.66,34.42Z" fill="#2f3d39" stroke="#2f3d39" stroke-width=".35" stroke-linejoin="round"/><path d="M30.42,31.32L28.54,32.34L31.82,32.69Z" fill="#33413c" stroke="#33413c" stroke-width=".35" stroke-linejoin="round"/><path d="M47.00,36.87L47.00,37.13L49.87,39.67Z" fill="#425c50" stroke="#425c50" stroke-width=".35" stroke-linejoin="round"/><path d="M69.91,31.80L71.31,33.17L73.19,32.16Z" fill="#e7dbbe" stroke="#e7dbbe" stroke-width=".35" stroke-linejoin="round"/><path d="M39.89,56.46L39.89,85.77L43.20,59.69Z" fill="#9a7950" stroke="#9a7950" stroke-width=".35" stroke-linejoin="round"/><path d="M29.94,33.70L29.94,36.25L31.82,32.69Z" fill="#293531" stroke="#293531" stroke-width=".35" stroke-linejoin="round"/><path d="M40.27,36.40L43.14,39.20L43.14,38.95Z" fill="#425c50" stroke="#425c50" stroke-width=".35" stroke-linejoin="round"/><path d="M64.32,36.24L60.46,38.32L67.19,39.04Z" fill="#466255" stroke="#466255" stroke-width=".35" stroke-linejoin="round"/><path d="M35.27,33.06L35.27,35.61L36.66,34.42Z" fill="#2f3d39" stroke="#2f3d39" stroke-width=".35" stroke-linejoin="round"/><path d="M47.00,36.87L49.87,39.67L53.73,37.60Z" fill="#466255" stroke="#466255" stroke-width=".35" stroke-linejoin="round"/><path d="M49.87,39.93L53.73,37.85L53.73,37.60Z" fill="#395146" stroke="#395146" stroke-width=".35" stroke-linejoin="round"/><path d="M43.14,38.95L43.14,39.20L47.00,36.87Z" fill="#395146" stroke="#395146" stroke-width=".35" stroke-linejoin="round"/><path d="M37.15,32.05L35.27,33.06L38.55,33.41Z" fill="#33413c" stroke="#33413c" stroke-width=".35" stroke-linejoin="round"/><path d="M28.54,32.34L29.94,33.70L31.82,32.69Z" fill="#33413c" stroke="#33413c" stroke-width=".35" stroke-linejoin="round"/><path d="M53.73,37.60L53.73,37.85L56.59,40.40Z" fill="#425c50" stroke="#425c50" stroke-width=".35" stroke-linejoin="round"/><path d="M36.66,34.42L36.66,36.97L38.55,33.41Z" fill="#293531" stroke="#293531" stroke-width=".35" stroke-linejoin="round"/><path d="M47.00,37.13L49.87,39.93L49.87,39.67Z" fill="#425c50" stroke="#425c50" stroke-width=".35" stroke-linejoin="round"/><path d="M53.73,37.60L56.59,40.40L60.46,38.32Z" fill="#466255" stroke="#466255" stroke-width=".35" stroke-linejoin="round"/><path d="M56.59,40.65L60.46,38.58L60.46,38.32Z" fill="#395146" stroke="#395146" stroke-width=".35" stroke-linejoin="round"/><path d="M49.87,39.67L49.87,39.93L53.73,37.60Z" fill="#395146" stroke="#395146" stroke-width=".35" stroke-linejoin="round"/><path d="M18.24,29.00L43.58,53.78L77.76,35.41Z" fill="#d2c5a2" stroke="#d2c5a2" stroke-width=".35" stroke-linejoin="round"/><path d="M35.27,33.06L36.66,34.42L38.55,33.41Z" fill="#33413c" stroke="#33413c" stroke-width=".35" stroke-linejoin="round"/><path d="M43.20,59.69L43.20,89.00L47.65,57.30Z" fill="#886a46" stroke="#886a46" stroke-width=".35" stroke-linejoin="round"/><path d="M60.46,38.32L60.46,38.58L63.32,41.12Z" fill="#425c50" stroke="#425c50" stroke-width=".35" stroke-linejoin="round"/><path d="M53.73,37.85L56.59,40.65L56.59,40.40Z" fill="#425c50" stroke="#425c50" stroke-width=".35" stroke-linejoin="round"/><path d="M11.77,29.37L42.62,59.53L84.23,37.17Z" fill="#a28055" stroke="#a28055" stroke-width=".35" stroke-linejoin="round"/><path d="M60.46,38.32L63.32,41.12L67.19,39.04Z" fill="#466255" stroke="#466255" stroke-width=".35" stroke-linejoin="round"/><path d="M63.32,41.38L67.19,39.30L67.19,39.04Z" fill="#395146" stroke="#395146" stroke-width=".35" stroke-linejoin="round"/><path d="M56.59,40.40L56.59,40.65L60.46,38.32Z" fill="#395146" stroke="#395146" stroke-width=".35" stroke-linejoin="round"/><path d="M42.62,62.51L84.23,40.14L84.23,37.17Z" fill="#886a46" stroke="#886a46" stroke-width=".35" stroke-linejoin="round"/><path d="M36.41,38.22L32.54,40.30L39.27,41.02Z" fill="#466255" stroke="#466255" stroke-width=".35" stroke-linejoin="round"/><path d="M60.46,38.58L63.32,41.38L63.32,41.12Z" fill="#425c50" stroke="#425c50" stroke-width=".35" stroke-linejoin="round"/><path d="M43.58,54.80L77.76,36.43L77.76,35.41Z" fill="#b0a587" stroke="#b0a587" stroke-width=".35" stroke-linejoin="round"/><path d="M63.32,41.12L63.32,41.38L67.19,39.04Z" fill="#395146" stroke="#395146" stroke-width=".35" stroke-linejoin="round"/><path d="M43.14,38.95L39.27,41.02L46.00,41.75Z" fill="#466255" stroke="#466255" stroke-width=".35" stroke-linejoin="round"/><path d="M32.54,40.30L32.54,40.56L35.41,43.10Z" fill="#425c50" stroke="#425c50" stroke-width=".35" stroke-linejoin="round"/><path d="M49.87,39.67L46.00,41.75L52.73,42.47Z" fill="#466255" stroke="#466255" stroke-width=".35" stroke-linejoin="round"/><path d="M32.54,40.30L35.41,43.10L39.27,41.02Z" fill="#466255" stroke="#466255" stroke-width=".35" stroke-linejoin="round"/><path d="M35.41,43.36L39.27,41.28L39.27,41.02Z" fill="#395146" stroke="#395146" stroke-width=".35" stroke-linejoin="round"/><path d="M39.27,41.02L39.27,41.28L42.14,43.83Z" fill="#425c50" stroke="#425c50" stroke-width=".35" stroke-linejoin="round"/><path d="M32.54,40.56L35.41,43.36L35.41,43.10Z" fill="#425c50" stroke="#425c50" stroke-width=".35" stroke-linejoin="round"/><path d="M56.59,40.40L52.73,42.47L59.46,43.20Z" fill="#466255" stroke="#466255" stroke-width=".35" stroke-linejoin="round"/><path d="M35.67,41.85L37.55,40.84L37.55,38.29Z" fill="#293531" stroke="#293531" stroke-width=".35" stroke-linejoin="round"/><path d="M39.27,41.02L42.14,43.83L46.00,41.75Z" fill="#466255" stroke="#466255" stroke-width=".35" stroke-linejoin="round"/><path d="M42.14,44.08L46.00,42.00L46.00,41.75Z" fill="#395146" stroke="#395146" stroke-width=".35" stroke-linejoin="round"/><path d="M35.41,43.10L35.41,43.36L39.27,41.02Z" fill="#395146" stroke="#395146" stroke-width=".35" stroke-linejoin="round"/><path d="M34.27,40.49L35.67,41.85L35.67,39.30Z" fill="#2f3d39" stroke="#2f3d39" stroke-width=".35" stroke-linejoin="round"/><path d="M46.00,41.75L46.00,42.00L48.87,44.55Z" fill="#425c50" stroke="#425c50" stroke-width=".35" stroke-linejoin="round"/><path d="M39.27,41.28L42.14,44.08L42.14,43.83Z" fill="#425c50" stroke="#425c50" stroke-width=".35" stroke-linejoin="round"/><path d="M34.27,37.94L34.27,40.49L35.67,39.30Z" fill="#2f3d39" stroke="#2f3d39" stroke-width=".35" stroke-linejoin="round"/><path d="M46.00,41.75L48.87,44.55L52.73,42.47Z" fill="#466255" stroke="#466255" stroke-width=".35" stroke-linejoin="round"/><path d="M48.87,44.81L52.73,42.73L52.73,42.47Z" fill="#395146" stroke="#395146" stroke-width=".35" stroke-linejoin="round"/><path d="M42.14,43.83L42.14,44.08L46.00,41.75Z" fill="#395146" stroke="#395146" stroke-width=".35" stroke-linejoin="round"/><path d="M36.15,36.93L34.27,37.94L37.55,38.29Z" fill="#33413c" stroke="#33413c" stroke-width=".35" stroke-linejoin="round"/><path d="M52.73,42.47L52.73,42.73L55.59,45.28Z" fill="#425c50" stroke="#425c50" stroke-width=".35" stroke-linejoin="round"/><path d="M35.67,39.30L35.67,41.85L37.55,38.29Z" fill="#293531" stroke="#293531" stroke-width=".35" stroke-linejoin="round"/><path d="M46.00,42.00L48.87,44.81L48.87,44.55Z" fill="#425c50" stroke="#425c50" stroke-width=".35" stroke-linejoin="round"/><path d="M52.73,42.47L55.59,45.28L59.46,43.20Z" fill="#466255" stroke="#466255" stroke-width=".35" stroke-linejoin="round"/><path d="M55.59,45.53L59.46,43.45L59.46,43.20Z" fill="#395146" stroke="#395146" stroke-width=".35" stroke-linejoin="round"/><path d="M48.87,44.55L48.87,44.81L52.73,42.47Z" fill="#395146" stroke="#395146" stroke-width=".35" stroke-linejoin="round"/><path d="M34.27,37.94L35.67,39.30L37.55,38.29Z" fill="#33413c" stroke="#33413c" stroke-width=".35" stroke-linejoin="round"/><path d="M52.73,42.73L55.59,45.53L55.59,45.28Z" fill="#425c50" stroke="#425c50" stroke-width=".35" stroke-linejoin="round"/><path d="M18.24,30.02L43.58,54.80L43.58,53.78Z" fill="#c7bb99" stroke="#c7bb99" stroke-width=".35" stroke-linejoin="round"/><path d="M55.59,45.28L55.59,45.53L59.46,43.20Z" fill="#395146" stroke="#395146" stroke-width=".35" stroke-linejoin="round"/><path d="M11.77,32.34L42.62,62.51L42.62,59.53Z" fill="#9a7950" stroke="#9a7950" stroke-width=".35" stroke-linejoin="round"/><path d="M38.53,44.65L40.41,43.64L40.41,41.09Z" fill="#293531" stroke="#293531" stroke-width=".35" stroke-linejoin="round"/><path d="M37.13,43.29L38.53,44.65L38.53,42.10Z" fill="#2f3d39" stroke="#2f3d39" stroke-width=".35" stroke-linejoin="round"/><path d="M42.14,43.83L38.27,45.90L45.00,46.63Z" fill="#466255" stroke="#466255" stroke-width=".35" stroke-linejoin="round"/><path d="M37.13,40.74L37.13,43.29L38.53,42.10Z" fill="#2f3d39" stroke="#2f3d39" stroke-width=".35" stroke-linejoin="round"/><path d="M45.26,45.38L47.14,44.37L47.14,41.82Z" fill="#293531" stroke="#293531" stroke-width=".35" stroke-linejoin="round"/><path d="M43.86,44.01L45.26,45.38L45.26,42.83Z" fill="#2f3d39" stroke="#2f3d39" stroke-width=".35" stroke-linejoin="round"/><path d="M39.02,39.73L37.13,40.74L40.41,41.09Z" fill="#33413c" stroke="#33413c" stroke-width=".35" stroke-linejoin="round"/><path d="M48.87,44.55L45.00,46.63L51.73,47.35Z" fill="#466255" stroke="#466255" stroke-width=".35" stroke-linejoin="round"/><path d="M38.53,42.10L38.53,44.65L40.41,41.09Z" fill="#293531" stroke="#293531" stroke-width=".35" stroke-linejoin="round"/><path d="M43.86,41.46L43.86,44.01L45.26,42.83Z" fill="#2f3d39" stroke="#2f3d39" stroke-width=".35" stroke-linejoin="round"/><path d="M45.75,40.45L43.86,41.46L47.14,41.82Z" fill="#33413c" stroke="#33413c" stroke-width=".35" stroke-linejoin="round"/><path d="M37.13,40.74L38.53,42.10L40.41,41.09Z" fill="#33413c" stroke="#33413c" stroke-width=".35" stroke-linejoin="round"/><path d="M38.27,45.90L38.27,46.16L41.14,48.70Z" fill="#425c50" stroke="#425c50" stroke-width=".35" stroke-linejoin="round"/><path d="M43.58,53.78L43.58,54.80L77.76,35.41Z" fill="#b0a587" stroke="#b0a587" stroke-width=".35" stroke-linejoin="round"/><path d="M45.26,42.83L45.26,45.38L47.14,41.82Z" fill="#293531" stroke="#293531" stroke-width=".35" stroke-linejoin="round"/><path d="M44.35,54.06L39.89,56.46L47.65,57.30Z" fill="#a28055" stroke="#a28055" stroke-width=".35" stroke-linejoin="round"/><path d="M38.27,45.90L41.14,48.70L45.00,46.63Z" fill="#466255" stroke="#466255" stroke-width=".35" stroke-linejoin="round"/><path d="M41.14,48.96L45.00,46.88L45.00,46.63Z" fill="#395146" stroke="#395146" stroke-width=".35" stroke-linejoin="round"/><path d="M43.86,41.46L45.26,42.83L47.14,41.82Z" fill="#33413c" stroke="#33413c" stroke-width=".35" stroke-linejoin="round"/><path d="M45.00,46.63L45.00,46.88L47.87,49.43Z" fill="#425c50" stroke="#425c50" stroke-width=".35" stroke-linejoin="round"/><path d="M38.27,46.16L41.14,48.96L41.14,48.70Z" fill="#425c50" stroke="#425c50" stroke-width=".35" stroke-linejoin="round"/><path d="M45.00,46.63L47.87,49.43L51.73,47.35Z" fill="#466255" stroke="#466255" stroke-width=".35" stroke-linejoin="round"/><path d="M47.87,49.68L51.73,47.61L51.73,47.35Z" fill="#395146" stroke="#395146" stroke-width=".35" stroke-linejoin="round"/><path d="M41.14,48.70L41.14,48.96L45.00,46.63Z" fill="#395146" stroke="#395146" stroke-width=".35" stroke-linejoin="round"/><path d="M42.62,59.53L42.62,62.51L84.23,37.17Z" fill="#886a46" stroke="#886a46" stroke-width=".35" stroke-linejoin="round"/><path d="M45.00,46.88L47.87,49.68L47.87,49.43Z" fill="#425c50" stroke="#425c50" stroke-width=".35" stroke-linejoin="round"/><path d="M47.87,49.43L47.87,49.68L51.73,47.35Z" fill="#395146" stroke="#395146" stroke-width=".35" stroke-linejoin="round"/><path d="M39.89,56.46L43.20,59.69L47.65,57.30Z" fill="#a28055" stroke="#a28055" stroke-width=".35" stroke-linejoin="round"/><path d="M44.26,50.26L46.14,49.24L46.14,46.69Z" fill="#293531" stroke="#293531" stroke-width=".35" stroke-linejoin="round"/><path d="M42.86,48.89L44.26,50.26L44.26,47.71Z" fill="#2f3d39" stroke="#2f3d39" stroke-width=".35" stroke-linejoin="round"/><path d="M42.86,46.34L42.86,48.89L44.26,47.71Z" fill="#2f3d39" stroke="#2f3d39" stroke-width=".35" stroke-linejoin="round"/><path d="M44.75,45.33L42.86,46.34L46.14,46.69Z" fill="#33413c" stroke="#33413c" stroke-width=".35" stroke-linejoin="round"/><path d="M44.26,47.71L44.26,50.26L46.14,46.69Z" fill="#293531" stroke="#293531" stroke-width=".35" stroke-linejoin="round"/><path d="M42.86,46.34L44.26,47.71L46.14,46.69Z" fill="#33413c" stroke="#33413c" stroke-width=".35" stroke-linejoin="round"/></svg>