<svg xmlns="http://www.w3.org/2000/svg" viewBox="0 0 96 96" role="img"><title>muffalo-wool-tribalwear</title><path d="M65.57,23.69L65.57,17.36L61.90,32.02Z" fill="#909b96" stroke="#909b96" stroke-width=".35" stroke-linejoin="round"/><path d="M65.57,23.69L61.90,32.02L61.90,38.34Z" fill="#909b96" stroke="#909b96" stroke-width=".35" stroke-linejoin="round"/><path d="M38.37,30.71L65.57,17.36L47.36,19.54Z" fill="#acb9b3" stroke="#acb9b3" stroke-width=".35" stroke-linejoin="round"/><path d="M7.00,46.94L65.57,17.36L38.37,30.71Z" fill="#acb9b3" stroke="#acb9b3" stroke-width=".35" stroke-linejoin="round"/><path d="M7.00,46.94L61.90,32.02L65.57,17.36Z" fill="#acb9b3" stroke="#acb9b3" stroke-width=".35" stroke-linejoin="round"/><path d="M61.90,32.02L80.84,52.27L68.60,38.56Z" fill="#acb9b3" stroke="#acb9b3" stroke-width=".35" stroke-linejoin="round"/><path d="M89.00,46.61L89.00,40.28L80.84,52.27Z" fill="#909b96" stroke="#909b96" stroke-width=".35" stroke-linejoin="round"/><path d="M89.00,46.61L80.84,52.27L80.84,58.60Z" fill="#909b96" stroke="#909b96" stroke-width=".35" stroke-linejoin="round"/><path d="M68.60,38.56L80.84,52.27L89.00,40.28Z" fill="#acb9b3" stroke="#acb9b3" stroke-width=".35" stroke-linejoin="round"/><path d="M61.90,32.02L7.00,46.94L80.84,52.27Z" fill="#acb9b3" stroke="#acb9b3" stroke-width=".35" stroke-linejoin="round"/><path d="M80.84,58.60L63.47,55.27L63.47,61.59Z" fill="#909b96" stroke="#909b96" stroke-width=".35" stroke-linejoin="round"/><path d="M32.94,78.64L7.00,46.94L7.00,53.27Z" fill="#a3afa9" stroke="#a3afa9" stroke-width=".35" stroke-linejoin="round"/><path d="M80.84,58.60L80.84,52.27L63.47,55.27Z" fill="#909b96" stroke="#909b96" stroke-width=".35" stroke-linejoin="round"/><path d="M80.84,52.27L7.00,46.94L63.47,55.27Z" fill="#acb9b3" stroke="#acb9b3" stroke-width=".35" stroke-linejoin="round"/><path d="M63.47,55.27L7.00,46.94L32.94,72.31Z" fill="#acb9b3" stroke="#acb9b3" stroke-width=".35" stroke-linejoin="round"/><path d="M63.47,61.59L63.47,55.27L32.94,72.31Z" fill="#909b96" stroke="#909b96" stroke-width=".35" stroke-linejoin="round"/><path d="M32.94,78.64L32.94,72.31L7.00,46.94Z" fill="#a3afa9" stroke="#a3afa9" stroke-width=".35" stroke-linejoin="round"/><path d="M63.47,61.59L32.94,72.31L32.94,78.64Z" fill="#909b96" stroke="#909b96" stroke-width=".35" stroke-linejoin="round"/></svg>