<svg xmlns="http://www.w3.org/2000/svg" viewBox="0 0 96 96" role="img"><title>silver</title><path d="M46.64,10.51L34.52,12.71L44.24,22.23Z" fill="#bfc1c4" stroke="#bfc1c4" stroke-width=".35" stroke-linejoin="round"/><path d="M57.37,15.17L46.64,10.51L44.24,22.23Z" fill="#bfc1c4" stroke="#bfc1c4" stroke-width=".35" stroke-linejoin="round"/><path d="M34.52,12.71L28.09,20.49L44.24,22.23Z" fill="#bfc1c4" stroke="#bfc1c4" stroke-width=".35" stroke-linejoin="round"/><path d="M60.40,23.97L57.37,15.17L44.24,22.23Z" fill="#bfc1c4" stroke="#bfc1c4" stroke-width=".35" stroke-linejoin="round"/><path d="M28.09,20.49L28.09,27.24L31.12,29.28Z" fill="#b9bbbe" stroke="#b9bbbe" stroke-width=".35" stroke-linejoin="round"/><path d="M28.09,27.24L31.12,36.03L31.12,29.28Z" fill="#b9bbbe" stroke="#b9bbbe" stroke-width=".35" stroke-linejoin="round"/><path d="M53.97,38.49L60.40,30.72L60.40,23.97Z" fill="#a1a2a5" stroke="#a1a2a5" stroke-width=".35" stroke-linejoin="round"/><path d="M28.09,20.49L31.12,29.28L44.24,22.23Z" fill="#bfc1c4" stroke="#bfc1c4" stroke-width=".35" stroke-linejoin="round"/><path d="M53.97,31.74L60.40,23.97L44.24,22.23Z" fill="#bfc1c4" stroke="#bfc1c4" stroke-width=".35" stroke-linejoin="round"/><path d="M53.97,31.74L53.97,38.49L60.40,23.97Z" fill="#a1a2a5" stroke="#a1a2a5" stroke-width=".35" stroke-linejoin="round"/><path d="M31.12,36.03L41.84,40.69L41.84,33.94Z" fill="#aeb0b3" stroke="#aeb0b3" stroke-width=".35" stroke-linejoin="round"/><path d="M41.84,40.69L53.97,38.49L53.97,31.74Z" fill="#a1a2a5" stroke="#a1a2a5" stroke-width=".35" stroke-linejoin="round"/><path d="M31.12,29.28L31.12,36.03L41.84,33.94Z" fill="#aeb0b3" stroke="#aeb0b3" stroke-width=".35" stroke-linejoin="round"/><path d="M31.12,29.28L41.84,33.94L44.24,22.23Z" fill="#bfc1c4" stroke="#bfc1c4" stroke-width=".35" stroke-linejoin="round"/><path d="M41.84,33.94L53.97,31.74L44.24,22.23Z" fill="#bfc1c4" stroke="#bfc1c4" stroke-width=".35" stroke-linejoin="round"/><path d="M41.84,33.94L41.84,40.69L53.97,31.74Z" fill="#a1a2a5" stroke="#a1a2a5" stroke-width=".35" stroke-linejoin="round"/><path d="M25.56,36.45L13.43,38.65L23.16,48.17Z" fill="#bfc1c4" stroke="#bfc1c4" stroke-width=".35" stroke-linejoin="round"/><path d="M36.28,41.11L25.56,36.45L23.16,48.17Z" fill="#bfc1c4" stroke="#bfc1c4" stroke-width=".35" stroke-linejoin="round"/><path d="M13.43,38.65L7.00,46.43L23.16,48.17Z" fill="#bfc1c4" stroke="#bfc1c4" stroke-width=".35" stroke-linejoin="round"/><path d="M75.24,26.02L63.11,28.22L72.84,37.74Z" fill="#bfc1c4" stroke="#bfc1c4" stroke-width=".35" stroke-linejoin="round"/><path d="M39.32,49.91L36.28,41.11L23.16,48.17Z" fill="#bfc1c4" stroke="#bfc1c4" stroke-width=".35" stroke-linejoin="round"/><path d="M85.96,30.68L75.24,26.02L72.84,37.74Z" fill="#bfc1c4" stroke="#bfc1c4" stroke-width=".35" stroke-linejoin="round"/><path d="M7.00,46.43L7.00,50.37L10.04,55.22Z" fill="#b9bbbe" stroke="#b9bbbe" stroke-width=".35" stroke-linejoin="round"/><path d="M56.68,47.25L59.72,56.04L59.72,44.79Z" fill="#b9bbbe" stroke="#b9bbbe" stroke-width=".35" stroke-linejoin="round"/><path d="M82.57,58.50L89.00,50.73L89.00,39.48Z" fill="#a1a2a5" stroke="#a1a2a5" stroke-width=".35" stroke-linejoin="round"/><path d="M7.00,50.37L10.04,59.16L10.04,55.22Z" fill="#b9bbbe" stroke="#b9bbbe" stroke-width=".35" stroke-linejoin="round"/><path d="M63.11,28.22L56.68,36.00L72.84,37.74Z" fill="#bfc1c4" stroke="#bfc1c4" stroke-width=".35" stroke-linejoin="round"/><path d="M32.89,61.62L39.32,53.85L39.32,49.91Z" fill="#a1a2a5" stroke="#a1a2a5" stroke-width=".35" stroke-linejoin="round"/><path d="M7.00,46.43L10.04,55.22L23.16,48.17Z" fill="#bfc1c4" stroke="#bfc1c4" stroke-width=".35" stroke-linejoin="round"/><path d="M56.68,36.00L56.68,47.25L59.72,44.79Z" fill="#b9bbbe" stroke="#b9bbbe" stroke-width=".35" stroke-linejoin="round"/><path d="M89.00,39.48L85.96,30.68L72.84,37.74Z" fill="#bfc1c4" stroke="#bfc1c4" stroke-width=".35" stroke-linejoin="round"/><path d="M32.89,57.68L39.32,49.91L23.16,48.17Z" fill="#bfc1c4" stroke="#bfc1c4" stroke-width=".35" stroke-linejoin="round"/><path d="M32.89,57.68L32.89,61.62L39.32,49.91Z" fill="#a1a2a5" stroke="#a1a2a5" stroke-width=".35" stroke-linejoin="round"/><path d="M10.04,55.22L20.76,59.88L23.16,48.17Z" fill="#bfc1c4" stroke="#bfc1c4" stroke-width=".35" stroke-linejoin="round"/><path d="M56.68,36.00L59.72,44.79L72.84,37.74Z" fill="#bfc1c4" stroke="#bfc1c4" stroke-width=".35" stroke-linejoin="round"/><path d="M59.72,56.04L70.44,60.70L70.44,49.45Z" fill="#aeb0b3" stroke="#aeb0b3" stroke-width=".35" stroke-linejoin="round"/><path d="M70.44,60.70L82.57,58.50L82.57,47.25Z" fill="#a1a2a5" stroke="#a1a2a5" stroke-width=".35" stroke-linejoin="round"/><path d="M20.76,59.88L32.89,57.68L23.16,48.17Z" fill="#bfc1c4" stroke="#bfc1c4" stroke-width=".35" stroke-linejoin="round"/><path d="M10.04,55.22L10.04,59.16L20.76,59.88Z" fill="#aeb0b3" stroke="#aeb0b3" stroke-width=".35" stroke-linejoin="round"/><path d="M10.04,59.16L20.76,63.82L20.76,59.88Z" fill="#aeb0b3" stroke="#aeb0b3" stroke-width=".35" stroke-linejoin="round"/><path d="M20.76,63.82L32.89,61.62L32.89,57.68Z" fill="#a1a2a5" stroke="#a1a2a5" stroke-width=".35" stroke-linejoin="round"/><path d="M82.57,47.25L82.57,58.50L89.00,39.48Z" fill="#a1a2a5" stroke="#a1a2a5" stroke-width=".35" stroke-linejoin="round"/><path d="M82.57,47.25L89.00,39.48L72.84,37.74Z" fill="#bfc1c4" stroke="#bfc1c4" stroke-width=".35" stroke-linejoin="round"/><path d="M59.72,44.79L59.72,56.04L70.44,49.45Z" fill="#aeb0b3" stroke="#aeb0b3" stroke-width=".35" stroke-linejoin="round"/><path d="M20.76,59.88L20.76,63.82L32.89,57.68Z" fill="#a1a2a5" stroke="#a1a2a5" stroke-width=".35" stroke-linejoin="round"/><path d="M59.72,44.79L70.44,49.45L72.84,37.74Z" fill="#bfc1c4" stroke="#bfc1c4" stroke-width=".35" stroke-linejoin="round"/><path d="M70.44,49.45L70.44,60.70L82.57,47.25Z" fill="#a1a2a5" stroke="#a1a2a5" stroke-width=".35" stroke-linejoin="round"/><path d="M70.44,49.45L82.57,47.25L72.84,37.74Z" fill="#bfc1c4" stroke="#bfc1c4" stroke-width=".35" stroke-linejoin="round"/><path d="M53.82,57.00L41.69,59.20L51.42,68.71Z" fill="#bfc1c4" stroke="#bfc1c4" stroke-width=".35" stroke-linejoin="round"/><path d="M64.54,61.66L53.82,57.00L51.42,68.71Z" fill="#bfc1c4" stroke="#bfc1c4" stroke-width=".35" stroke-linejoin="round"/><path d="M41.69,59.20L35.26,66.97L51.42,68.71Z" fill="#bfc1c4" stroke="#bfc1c4" stroke-width=".35" stroke-linejoin="round"/><path d="M67.57,70.45L64.54,61.66L51.42,68.71Z" fill="#bfc1c4" stroke="#bfc1c4" stroke-width=".35" stroke-linejoin="round"/><path d="M35.26,66.97L35.26,72.03L38.29,75.76Z" fill="#b9bbbe" stroke="#b9bbbe" stroke-width=".35" stroke-linejoin="round"/><path d="M35.26,72.03L38.29,80.83L38.29,75.76Z" fill="#b9bbbe" stroke="#b9bbbe" stroke-width=".35" stroke-linejoin="round"/><path d="M61.14,83.29L67.57,75.51L67.57,70.45Z" fill="#a1a2a5" stroke="#a1a2a5" stroke-width=".35" stroke-linejoin="round"/><path d="M35.26,66.97L38.29,75.76L51.42,68.71Z" fill="#bfc1c4" stroke="#bfc1c4" stroke-width=".35" stroke-linejoin="round"/><path d="M61.14,78.22L67.57,70.45L51.42,68.71Z" fill="#bfc1c4" stroke="#bfc1c4" stroke-width=".35" stroke-linejoin="round"/><path d="M61.14,78.22L61.14,83.29L67.57,70.45Z" fill="#a1a2a5" stroke="#a1a2a5" stroke-width=".35" stroke-linejoin="round"/><path d="M38.29,75.76L49.02,80.42L51.42,68.71Z" fill="#bfc1c4" stroke="#bfc1c4" stroke-width=".35" stroke-linejoin="round"/><path d="M38.29,80.83L49.02,85.49L49.02,80.42Z" fill="#aeb0b3" stroke="#aeb0b3" stroke-width=".35" stroke-linejoin="round"/><path d="M49.02,85.49L61.14,83.29L61.14,78.22Z" fill="#a1a2a5" stroke="#a1a2a5" stroke-width=".35" stroke-linejoin="round"/><path d="M38.29,75.76L38.29,80.83L49.02,80.42Z" fill="#aeb0b3" stroke="#aeb0b3" stroke-width=".35" stroke-linejoin="round"/><path d="M49.02,80.42L61.14,78.22L51.42,68.71Z" fill="#bfc1c4" stroke="#bfc1c4" stroke-width=".35" stroke-linejoin="round"/><path d="M49.02,80.42L49.02,85.49L61.14,78.22Z" fill="#a1a2a5" stroke="#a1a2a5" stroke-width=".35" stroke-linejoin="round"/></svg>