<svg xmlns="http://www.w3.org/2000/svg" viewBox="0 0 96 96" role="img"><title>unfinished-sculpture</title><path d="M51.06,21.60L18.48,39.11L77.52,47.47Z" fill="#ae9571" stroke="#ae9571" stroke-width=".35" stroke-linejoin="round"/><path d="M18.48,39.11L7.00,47.65L44.94,64.98Z" fill="#af9672" stroke="#af9672" stroke-width=".35" stroke-linejoin="round"/><path d="M43.75,83.58L89.00,59.26L77.52,47.47Z" fill="#957f60" stroke="#957f60" stroke-width=".35" stroke-linejoin="round"/><path d="M18.48,39.11L44.94,64.98L77.52,47.47Z" fill="#ae9571" stroke="#ae9571" stroke-width=".35" stroke-linejoin="round"/><path d="M7.00,47.65L43.75,83.58L44.94,64.98Z" fill="#af9672" stroke="#af9672" stroke-width=".35" stroke-linejoin="round"/><path d="M23.65,27.39L30.47,55.70L33.17,35.09Z" fill="#ab926f" stroke="#ab926f" stroke-width=".35" stroke-linejoin="round"/><path d="M51.81,53.67L30.47,55.70L56.28,58.71Z" fill="#927c5e" stroke="#927c5e" stroke-width=".35" stroke-linejoin="round"/><path d="M70.09,43.62L51.81,53.67L56.28,58.71Z" fill="#927c5e" stroke="#927c5e" stroke-width=".35" stroke-linejoin="round"/><path d="M23.65,27.39L33.17,35.09L39.48,12.42Z" fill="#b49a75" stroke="#b49a75" stroke-width=".35" stroke-linejoin="round"/><path d="M44.94,64.98L43.75,83.58L77.52,47.47Z" fill="#957f60" stroke="#957f60" stroke-width=".35" stroke-linejoin="round"/><path d="M55.82,29.64L70.09,43.62L61.64,20.50Z" fill="#927c5e" stroke="#927c5e" stroke-width=".35" stroke-linejoin="round"/><path d="M55.82,29.64L61.64,20.50L39.48,12.42Z" fill="#a28a69" stroke="#a28a69" stroke-width=".35" stroke-linejoin="round"/><path d="M51.81,53.67L33.17,35.09L30.47,55.70Z" fill="#a28a69" stroke="#a28a69" stroke-width=".35" stroke-linejoin="round"/><path d="M70.09,43.62L55.82,29.64L51.81,53.67Z" fill="#927c5e" stroke="#927c5e" stroke-width=".35" stroke-linejoin="round"/><path d="M33.17,35.09L55.82,29.64L39.48,12.42Z" fill="#b29874" stroke="#b29874" stroke-width=".35" stroke-linejoin="round"/><path d="M33.17,35.09L51.81,53.67L55.82,29.64Z" fill="#a78f6d" stroke="#a78f6d" stroke-width=".35" stroke-linejoin="round"/></svg>