<svg xmlns="http://www.w3.org/2000/svg" viewBox="0 0 96 96" role="img"><title>sandstone-blocks</title><path d="M48.35,29.60L15.41,47.30L63.98,44.88Z" fill="#c1a987" stroke="#c1a987" stroke-width=".35" stroke-linejoin="round"/><path d="M31.04,72.76L63.98,55.05L63.98,44.88Z" fill="#a28e71" stroke="#a28e71" stroke-width=".35" stroke-linejoin="round"/><path d="M15.41,47.30L15.41,57.47L31.04,62.59Z" fill="#b7a080" stroke="#b7a080" stroke-width=".35" stroke-linejoin="round"/><path d="M15.41,57.47L31.04,72.76L31.04,62.59Z" fill="#b7a080" stroke="#b7a080" stroke-width=".35" stroke-linejoin="round"/><path d="M15.41,47.30L31.04,62.59L63.98,44.88Z" fill="#c1a987" stroke="#c1a987" stroke-width=".35" stroke-linejoin="round"/><path d="M31.04,62.59L31.04,72.76L63.98,44.88Z" fill="#a28e71" stroke="#a28e71" stroke-width=".35" stroke-linejoin="round"/><path d="M48.35,18.30L15.41,36.01L63.98,33.58Z" fill="#bca484" stroke="#bca484" stroke-width=".35" stroke-linejoin="round"/><path d="M31.04,61.46L63.98,43.75L63.98,33.58Z" fill="#9d8a6e" stroke="#9d8a6e" stroke-width=".35" stroke-linejoin="round"/><path d="M64.96,45.84L32.02,63.55L80.59,61.12Z" fill="#a59579" stroke="#a59579" stroke-width=".35" stroke-linejoin="round"/><path d="M47.65,89.00L80.59,71.29L80.59,61.12Z" fill="#8a7c65" stroke="#8a7c65" stroke-width=".35" stroke-linejoin="round"/><path d="M15.41,36.01L15.41,46.17L31.04,51.29Z" fill="#b29c7c" stroke="#b29c7c" stroke-width=".35" stroke-linejoin="round"/><path d="M15.41,46.17L31.04,61.46L31.04,51.29Z" fill="#b29c7c" stroke="#b29c7c" stroke-width=".35" stroke-linejoin="round"/><path d="M15.41,36.01L31.04,51.29L63.98,33.58Z" fill="#bca484" stroke="#bca484" stroke-width=".35" stroke-linejoin="round"/><path d="M32.02,63.55L32.02,73.71L47.65,78.83Z" fill="#9d8d72" stroke="#9d8d72" stroke-width=".35" stroke-linejoin="round"/><path d="M31.04,51.29L31.04,61.46L63.98,33.58Z" fill="#9d8a6e" stroke="#9d8a6e" stroke-width=".35" stroke-linejoin="round"/><path d="M48.35,7.00L15.41,24.71L63.98,22.29Z" fill="#b9a78b" stroke="#b9a78b" stroke-width=".35" stroke-linejoin="round"/><path d="M32.02,73.71L47.65,89.00L47.65,78.83Z" fill="#9d8d72" stroke="#9d8d72" stroke-width=".35" stroke-linejoin="round"/><path d="M32.02,63.55L47.65,78.83L80.59,61.12Z" fill="#a59579" stroke="#a59579" stroke-width=".35" stroke-linejoin="round"/><path d="M31.04,50.16L63.98,32.45L63.98,22.29Z" fill="#9b8c74" stroke="#9b8c74" stroke-width=".35" stroke-linejoin="round"/><path d="M47.65,78.83L47.65,89.00L80.59,61.12Z" fill="#8a7c65" stroke="#8a7c65" stroke-width=".35" stroke-linejoin="round"/><path d="M64.96,34.54L32.02,52.25L80.59,49.83Z" fill="#af9471" stroke="#af9471" stroke-width=".35" stroke-linejoin="round"/><path d="M47.65,77.70L80.59,59.99L80.59,49.83Z" fill="#937c5e" stroke="#937c5e" stroke-width=".35" stroke-linejoin="round"/><path d="M15.41,24.71L15.41,34.88L31.04,39.99Z" fill="#af9e84" stroke="#af9e84" stroke-width=".35" stroke-linejoin="round"/><path d="M15.41,34.88L31.04,50.16L31.04,39.99Z" fill="#af9e84" stroke="#af9e84" stroke-width=".35" stroke-linejoin="round"/><path d="M15.41,24.71L31.04,39.99L63.98,22.29Z" fill="#b9a78b" stroke="#b9a78b" stroke-width=".35" stroke-linejoin="round"/><path d="M32.02,52.25L32.02,62.42L47.65,67.53Z" fill="#a68c6b" stroke="#a68c6b" stroke-width=".35" stroke-linejoin="round"/><path d="M31.04,39.99L31.04,50.16L63.98,22.29Z" fill="#9b8c74" stroke="#9b8c74" stroke-width=".35" stroke-linejoin="round"/><path d="M32.02,62.42L47.65,77.70L47.65,67.53Z" fill="#a68c6b" stroke="#a68c6b" stroke-width=".35" stroke-linejoin="round"/><path d="M32.02,52.25L47.65,67.53L80.59,49.83Z" fill="#af9471" stroke="#af9471" stroke-width=".35" stroke-linejoin="round"/><path d="M47.65,67.53L47.65,77.70L80.59,49.83Z" fill="#937c5e" stroke="#937c5e" stroke-width=".35" stroke-linejoin="round"/></svg>