<svg xmlns="http://www.w3.org/2000/svg" viewBox="0 0 96 96" role="img"><title>red-fox-meat</title><path d="M46.67,7.00L9.17,16.92L23.95,17.73Z" fill="#b35e55" stroke="#b35e55" stroke-width=".35" stroke-linejoin="round"/><path d="M67.41,18.70L81.02,18.03L46.67,7.00Z" fill="#a7574f" stroke="#a7574f" stroke-width=".35" stroke-linejoin="round"/><path d="M81.02,18.03L67.41,18.70L81.34,39.42Z" fill="#995048" stroke="#995048" stroke-width=".35" stroke-linejoin="round"/><path d="M9.17,16.92L8.68,40.24L23.95,17.73Z" fill="#ba6259" stroke="#ba6259" stroke-width=".35" stroke-linejoin="round"/><path d="M67.41,18.70L46.67,7.00L23.95,17.73Z" fill="#b15d54" stroke="#b15d54" stroke-width=".35" stroke-linejoin="round"/><path d="M46.54,39.54L81.34,39.42L67.41,18.70Z" fill="#a7574f" stroke="#a7574f" stroke-width=".35" stroke-linejoin="round"/><path d="M81.34,39.42L46.54,39.54L46.53,56.35Z" fill="#964e46" stroke="#964e46" stroke-width=".35" stroke-linejoin="round"/><path d="M46.54,39.54L67.41,18.70L23.95,17.73Z" fill="#b25d55" stroke="#b25d55" stroke-width=".35" stroke-linejoin="round"/><path d="M8.68,40.24L46.54,39.54L23.95,17.73Z" fill="#b45f56" stroke="#b45f56" stroke-width=".35" stroke-linejoin="round"/><path d="M8.68,40.24L46.53,56.35L46.54,39.54Z" fill="#a2554d" stroke="#a2554d" stroke-width=".35" stroke-linejoin="round"/><path d="M64.51,36.95L84.81,75.43L66.68,40.21Z" fill="#b7ab92" stroke="#b7ab92" stroke-width=".35" stroke-linejoin="round"/><path d="M51.91,43.97L70.15,83.59L54.07,39.61Z" fill="#dccfb0" stroke="#dccfb0" stroke-width=".35" stroke-linejoin="round"/><path d="M59.29,36.70L78.74,75.14L64.51,36.95Z" fill="#cec1a5" stroke="#cec1a5" stroke-width=".35" stroke-linejoin="round"/><path d="M54.07,39.61L72.67,78.52L59.29,36.70Z" fill="#e0d2b4" stroke="#e0d2b4" stroke-width=".35" stroke-linejoin="round"/><path d="M84.81,75.43L87.32,79.22L66.68,40.21Z" fill="#b7ab92" stroke="#b7ab92" stroke-width=".35" stroke-linejoin="round"/><path d="M78.74,75.14L84.81,75.43L64.51,36.95Z" fill="#cec1a5" stroke="#cec1a5" stroke-width=".35" stroke-linejoin="round"/><path d="M70.15,83.59L72.67,78.52L54.07,39.61Z" fill="#dccfb0" stroke="#dccfb0" stroke-width=".35" stroke-linejoin="round"/><path d="M72.67,78.52L78.74,75.14L59.29,36.70Z" fill="#e0d2b4" stroke="#e0d2b4" stroke-width=".35" stroke-linejoin="round"/><path d="M78.74,87.67L84.81,84.29L78.74,81.41Z" fill="#b7ab92" stroke="#b7ab92" stroke-width=".35" stroke-linejoin="round"/><path d="M72.67,87.38L78.74,87.67L78.74,81.41Z" fill="#b7ab92" stroke="#b7ab92" stroke-width=".35" stroke-linejoin="round"/><path d="M84.81,84.29L87.32,79.22L78.74,81.41Z" fill="#b7ab92" stroke="#b7ab92" stroke-width=".35" stroke-linejoin="round"/><path d="M82.35,81.50L82.35,87.77L86.35,82.45Z" fill="#b7ab92" stroke="#b7ab92" stroke-width=".35" stroke-linejoin="round"/><path d="M70.15,83.59L72.67,87.38L78.74,81.41Z" fill="#b7ab92" stroke="#b7ab92" stroke-width=".35" stroke-linejoin="round"/><path d="M70.00,78.65L70.00,84.92L74.17,89.00Z" fill="#cec1a5" stroke="#cec1a5" stroke-width=".35" stroke-linejoin="round"/><path d="M78.17,74.28L82.18,72.10L74.00,73.34Z" fill="#d6c9ac" stroke="#d6c9ac" stroke-width=".35" stroke-linejoin="round"/><path d="M86.35,76.18L82.35,81.50L86.35,82.45Z" fill="#b7ab92" stroke="#b7ab92" stroke-width=".35" stroke-linejoin="round"/><path d="M87.32,79.22L84.81,75.43L78.74,81.41Z" fill="#b7ab92" stroke="#b7ab92" stroke-width=".35" stroke-linejoin="round"/><path d="M78.17,74.28L86.35,76.18L82.18,72.10Z" fill="#cabda1" stroke="#cabda1" stroke-width=".35" stroke-linejoin="round"/><path d="M78.17,74.28L74.00,73.34L70.00,78.65Z" fill="#e0d2b4" stroke="#e0d2b4" stroke-width=".35" stroke-linejoin="round"/><path d="M74.17,82.73L74.17,89.00L82.35,87.77Z" fill="#b7ab92" stroke="#b7ab92" stroke-width=".35" stroke-linejoin="round"/><path d="M72.67,78.52L70.15,83.59L78.74,81.41Z" fill="#b7ab92" stroke="#b7ab92" stroke-width=".35" stroke-linejoin="round"/><path d="M74.17,82.73L70.00,78.65L74.17,89.00Z" fill="#cec1a5" stroke="#cec1a5" stroke-width=".35" stroke-linejoin="round"/><path d="M84.81,75.43L78.74,75.14L78.74,81.41Z" fill="#b7ab92" stroke="#b7ab92" stroke-width=".35" stroke-linejoin="round"/><path d="M78.17,74.28L82.35,81.50L86.35,76.18Z" fill="#c6b99e" stroke="#c6b99e" stroke-width=".35" stroke-linejoin="round"/><path d="M82.35,81.50L74.17,82.73L82.35,87.77Z" fill="#b7ab92" stroke="#b7ab92" stroke-width=".35" stroke-linejoin="round"/><path d="M78.74,75.14L72.67,78.52L78.74,81.41Z" fill="#b7ab92" stroke="#b7ab92" stroke-width=".35" stroke-linejoin="round"/><path d="M78.17,74.28L70.00,78.65L74.17,82.73Z" fill="#dfd1b3" stroke="#dfd1b3" stroke-width=".35" stroke-linejoin="round"/><path d="M78.17,74.28L74.17,82.73L82.35,81.50Z" fill="#d1c4a7" stroke="#d1c4a7" stroke-width=".35" stroke-linejoin="round"/></svg>