<svg xmlns="http://www.w3.org/2000/svg" viewBox="0 0 96 96" role="img"><title>bluefur-shirt</title><path d="M71.73,28.97L71.73,22.07L70.05,29.88Z" fill="#697c9f" stroke="#697c9f" stroke-width=".35" stroke-linejoin="round"/><path d="M32.64,29.26L71.73,22.07L43.40,15.18Z" fill="#7e94bd" stroke="#7e94bd" stroke-width=".35" stroke-linejoin="round"/><path d="M71.73,28.97L70.05,29.88L70.05,36.78Z" fill="#697c9f" stroke="#697c9f" stroke-width=".35" stroke-linejoin="round"/><path d="M46.34,39.16L32.64,29.26L32.64,36.16Z" fill="#6e82a7" stroke="#6e82a7" stroke-width=".35" stroke-linejoin="round"/><path d="M46.34,32.26L71.73,22.07L32.64,29.26Z" fill="#7e94bd" stroke="#7e94bd" stroke-width=".35" stroke-linejoin="round"/><path d="M46.34,32.26L70.05,29.88L71.73,22.07Z" fill="#7e94bd" stroke="#7e94bd" stroke-width=".35" stroke-linejoin="round"/><path d="M46.34,39.16L46.34,32.26L32.64,29.26Z" fill="#6e82a7" stroke="#6e82a7" stroke-width=".35" stroke-linejoin="round"/><path d="M67.32,52.77L70.05,29.88L46.34,32.26Z" fill="#7e94bd" stroke="#7e94bd" stroke-width=".35" stroke-linejoin="round"/><path d="M70.05,29.88L89.00,59.78L77.34,37.02Z" fill="#7e94bd" stroke="#7e94bd" stroke-width=".35" stroke-linejoin="round"/><path d="M77.34,37.02L89.00,59.78L88.15,38.12Z" fill="#7e94bd" stroke="#7e94bd" stroke-width=".35" stroke-linejoin="round"/><path d="M67.32,52.77L46.34,32.26L7.00,53.41Z" fill="#7e94bd" stroke="#7e94bd" stroke-width=".35" stroke-linejoin="round"/><path d="M70.05,29.88L67.32,52.77L89.00,59.78Z" fill="#7e94bd" stroke="#7e94bd" stroke-width=".35" stroke-linejoin="round"/><path d="M27.98,80.82L7.00,53.41L7.00,60.30Z" fill="#778cb3" stroke="#778cb3" stroke-width=".35" stroke-linejoin="round"/><path d="M89.00,66.67L67.29,63.15L67.29,70.05Z" fill="#697c9f" stroke="#697c9f" stroke-width=".35" stroke-linejoin="round"/><path d="M67.32,59.67L67.32,52.77L27.98,73.92Z" fill="#697c9f" stroke="#697c9f" stroke-width=".35" stroke-linejoin="round"/><path d="M89.00,66.67L89.00,59.78L67.29,63.15Z" fill="#697c9f" stroke="#697c9f" stroke-width=".35" stroke-linejoin="round"/><path d="M89.00,59.78L67.32,52.77L67.29,63.15Z" fill="#7e94bd" stroke="#7e94bd" stroke-width=".35" stroke-linejoin="round"/><path d="M67.32,52.77L7.00,53.41L27.98,73.92Z" fill="#7e94bd" stroke="#7e94bd" stroke-width=".35" stroke-linejoin="round"/><path d="M67.32,59.67L27.98,73.92L27.98,80.82Z" fill="#697c9f" stroke="#697c9f" stroke-width=".35" stroke-linejoin="round"/><path d="M27.98,80.82L27.98,73.92L7.00,53.41Z" fill="#778cb3" stroke="#778cb3" stroke-width=".35" stroke-linejoin="round"/></svg>