<svg xmlns="http://www.w3.org/2000/svg" viewBox="0 0 96 96" role="img"><title>limestone-chunk</title><path d="M25.57,38.68L13.53,42.62L7.00,51.78Z" fill="#a4a68d" stroke="#a4a68d" stroke-width=".35" stroke-linejoin="round"/><path d="M26.91,45.24L34.08,49.82L25.57,38.68Z" fill="#858672" stroke="#858672" stroke-width=".35" stroke-linejoin="round"/><path d="M26.91,45.24L25.57,38.68L7.00,51.78Z" fill="#a4a68d" stroke="#a4a68d" stroke-width=".35" stroke-linejoin="round"/><path d="M7.00,51.78L15.50,63.43L15.61,53.38Z" fill="#959780" stroke="#959780" stroke-width=".35" stroke-linejoin="round"/><path d="M34.08,49.82L26.91,45.24L27.83,59.04Z" fill="#858672" stroke="#858672" stroke-width=".35" stroke-linejoin="round"/><path d="M27.83,59.04L15.61,53.38L15.50,63.43Z" fill="#878974" stroke="#878974" stroke-width=".35" stroke-linejoin="round"/><path d="M15.61,53.38L26.91,45.24L7.00,51.78Z" fill="#a4a68d" stroke="#a4a68d" stroke-width=".35" stroke-linejoin="round"/><path d="M15.61,53.38L27.83,59.04L26.91,45.24Z" fill="#8f917b" stroke="#8f917b" stroke-width=".35" stroke-linejoin="round"/><path d="M55.16,20.81L40.09,26.17L73.92,21.97Z" fill="#b8b395" stroke="#b8b395" stroke-width=".35" stroke-linejoin="round"/><path d="M85.51,36.98L73.92,21.97L79.76,46.35Z" fill="#9c987e" stroke="#9c987e" stroke-width=".35" stroke-linejoin="round"/><path d="M30.46,44.13L34.47,59.48L40.09,26.17Z" fill="#c0ba9b" stroke="#c0ba9b" stroke-width=".35" stroke-linejoin="round"/><path d="M89.00,52.01L85.51,36.98L79.76,46.35Z" fill="#9c987e" stroke="#9c987e" stroke-width=".35" stroke-linejoin="round"/><path d="M40.09,26.17L49.84,30.50L73.92,21.97Z" fill="#b8b395" stroke="#b8b395" stroke-width=".35" stroke-linejoin="round"/><path d="M46.22,74.82L65.21,75.19L34.47,59.48Z" fill="#a6a186" stroke="#a6a186" stroke-width=".35" stroke-linejoin="round"/><path d="M80.11,69.86L89.00,52.01L65.15,60.47Z" fill="#9c987e" stroke="#9c987e" stroke-width=".35" stroke-linejoin="round"/><path d="M65.21,75.19L80.11,69.86L65.15,60.47Z" fill="#9c987e" stroke="#9c987e" stroke-width=".35" stroke-linejoin="round"/><path d="M49.84,30.50L70.48,27.94L73.92,21.97Z" fill="#b8b395" stroke="#b8b395" stroke-width=".35" stroke-linejoin="round"/><path d="M73.92,21.97L70.48,27.94L79.76,46.35Z" fill="#9c987e" stroke="#9c987e" stroke-width=".35" stroke-linejoin="round"/><path d="M34.47,59.48L46.46,50.79L40.09,26.17Z" fill="#c0ba9b" stroke="#c0ba9b" stroke-width=".35" stroke-linejoin="round"/><path d="M65.21,75.19L65.15,60.47L34.47,59.48Z" fill="#a6a186" stroke="#a6a186" stroke-width=".35" stroke-linejoin="round"/><path d="M46.46,50.79L49.84,30.50L40.09,26.17Z" fill="#c0ba9b" stroke="#c0ba9b" stroke-width=".35" stroke-linejoin="round"/><path d="M89.00,52.01L79.76,46.35L65.15,60.47Z" fill="#9c987e" stroke="#9c987e" stroke-width=".35" stroke-linejoin="round"/><path d="M65.15,60.47L46.46,50.79L34.47,59.48Z" fill="#a6a186" stroke="#a6a186" stroke-width=".35" stroke-linejoin="round"/><path d="M70.48,27.94L49.84,30.50L46.46,50.79Z" fill="#b4af92" stroke="#b4af92" stroke-width=".35" stroke-linejoin="round"/><path d="M79.76,46.35L70.48,27.94L46.46,50.79Z" fill="#b4af92" stroke="#b4af92" stroke-width=".35" stroke-linejoin="round"/><path d="M65.15,60.47L79.76,46.35L46.46,50.79Z" fill="#b4af92" stroke="#b4af92" stroke-width=".35" stroke-linejoin="round"/></svg>