<svg xmlns="http://www.w3.org/2000/svg" viewBox="0 0 96 96" role="img"><title>flak-vest</title><path d="M65.57,23.69L65.57,17.36L61.90,32.02Z" fill="#4e5750" stroke="#4e5750" stroke-width=".35" stroke-linejoin="round"/><path d="M65.57,23.69L61.90,32.02L61.90,38.34Z" fill="#4e5750" stroke="#4e5750" stroke-width=".35" stroke-linejoin="round"/><path d="M38.37,30.71L65.57,17.36L47.36,19.54Z" fill="#5e6961" stroke="#5e6961" stroke-width=".35" stroke-linejoin="round"/><path d="M62.75,35.47L52.45,25.40L49.75,26.05Z" fill="#3d4c43" stroke="#3d4c43" stroke-width=".35" stroke-linejoin="round"/><path d="M7.00,46.94L65.57,17.36L38.37,30.71Z" fill="#5e6961" stroke="#5e6961" stroke-width=".35" stroke-linejoin="round"/><path d="M7.00,46.94L61.90,32.02L65.57,17.36Z" fill="#5e6961" stroke="#5e6961" stroke-width=".35" stroke-linejoin="round"/><path d="M57.17,33.31L62.75,35.47L49.75,26.05Z" fill="#3d4c43" stroke="#3d4c43" stroke-width=".35" stroke-linejoin="round"/><path d="M49.75,26.05L28.50,37.48L57.17,33.31Z" fill="#45554c" stroke="#45554c" stroke-width=".35" stroke-linejoin="round"/><path d="M61.90,32.02L80.84,52.27L68.60,38.56Z" fill="#5e6961" stroke="#5e6961" stroke-width=".35" stroke-linejoin="round"/><path d="M89.00,46.61L89.00,40.28L80.84,52.27Z" fill="#4e5750" stroke="#4e5750" stroke-width=".35" stroke-linejoin="round"/><path d="M33.22,51.34L62.75,35.47L57.17,33.31Z" fill="#3a483f" stroke="#3a483f" stroke-width=".35" stroke-linejoin="round"/><path d="M74.33,46.80L64.03,36.73L61.34,37.38Z" fill="#3d4c43" stroke="#3d4c43" stroke-width=".35" stroke-linejoin="round"/><path d="M89.00,46.61L80.84,52.27L80.84,58.60Z" fill="#4e5750" stroke="#4e5750" stroke-width=".35" stroke-linejoin="round"/><path d="M68.60,38.56L80.84,52.27L89.00,40.28Z" fill="#5e6961" stroke="#5e6961" stroke-width=".35" stroke-linejoin="round"/><path d="M61.90,32.02L7.00,46.94L80.84,52.27Z" fill="#5e6961" stroke="#5e6961" stroke-width=".35" stroke-linejoin="round"/><path d="M28.50,37.48L35.91,44.73L57.17,33.31Z" fill="#45554c" stroke="#45554c" stroke-width=".35" stroke-linejoin="round"/><path d="M28.50,37.48L22.92,41.27L35.91,44.73Z" fill="#47584e" stroke="#47584e" stroke-width=".35" stroke-linejoin="round"/><path d="M68.76,44.64L74.33,46.80L61.34,37.38Z" fill="#3d4c43" stroke="#3d4c43" stroke-width=".35" stroke-linejoin="round"/><path d="M35.91,44.73L33.22,51.34L57.17,33.31Z" fill="#3a483f" stroke="#3a483f" stroke-width=".35" stroke-linejoin="round"/><path d="M22.92,41.27L33.22,51.34L35.91,44.73Z" fill="#47584e" stroke="#47584e" stroke-width=".35" stroke-linejoin="round"/><path d="M80.84,58.60L63.47,55.27L63.47,61.59Z" fill="#4e5750" stroke="#4e5750" stroke-width=".35" stroke-linejoin="round"/><path d="M61.34,37.38L40.08,48.81L68.76,44.64Z" fill="#45554c" stroke="#45554c" stroke-width=".35" stroke-linejoin="round"/><path d="M32.94,78.64L7.00,46.94L7.00,53.27Z" fill="#59635b" stroke="#59635b" stroke-width=".35" stroke-linejoin="round"/><path d="M80.84,58.60L80.84,52.27L63.47,55.27Z" fill="#4e5750" stroke="#4e5750" stroke-width=".35" stroke-linejoin="round"/><path d="M80.84,52.27L7.00,46.94L63.47,55.27Z" fill="#5e6961" stroke="#5e6961" stroke-width=".35" stroke-linejoin="round"/><path d="M44.81,62.67L74.33,46.80L68.76,44.64Z" fill="#3a483f" stroke="#3a483f" stroke-width=".35" stroke-linejoin="round"/><path d="M40.08,48.81L47.50,56.06L68.76,44.64Z" fill="#45554c" stroke="#45554c" stroke-width=".35" stroke-linejoin="round"/><path d="M40.08,48.81L34.51,52.60L47.50,56.06Z" fill="#47584e" stroke="#47584e" stroke-width=".35" stroke-linejoin="round"/><path d="M63.47,55.27L7.00,46.94L32.94,72.31Z" fill="#5e6961" stroke="#5e6961" stroke-width=".35" stroke-linejoin="round"/><path d="M63.47,61.59L63.47,55.27L32.94,72.31Z" fill="#4e5750" stroke="#4e5750" stroke-width=".35" stroke-linejoin="round"/><path d="M47.50,56.06L44.81,62.67L68.76,44.64Z" fill="#3a483f" stroke="#3a483f" stroke-width=".35" stroke-linejoin="round"/><path d="M34.51,52.60L44.81,62.67L47.50,56.06Z" fill="#47584e" stroke="#47584e" stroke-width=".35" stroke-linejoin="round"/><path d="M32.94,78.64L32.94,72.31L7.00,46.94Z" fill="#59635b" stroke="#59635b" stroke-width=".35" stroke-linejoin="round"/><path d="M63.47,61.59L32.94,72.31L32.94,78.64Z" fill="#4e5750" stroke="#4e5750" stroke-width=".35" stroke-linejoin="round"/></svg>