<svg xmlns="http://www.w3.org/2000/svg" viewBox="0 0 96 96" role="img"><title>emp-launcher</title><path d="M11.92,12.37L11.92,22.64L28.20,28.29Z" fill="#576670" stroke="#576670" stroke-width=".35" stroke-linejoin="round"/><path d="M21.90,7.00L11.92,12.37L38.18,22.92Z" fill="#5c6c76" stroke="#5c6c76" stroke-width=".35" stroke-linejoin="round"/><path d="M11.92,22.64L28.20,38.56L28.20,28.29Z" fill="#576670" stroke="#576670" stroke-width=".35" stroke-linejoin="round"/><path d="M40.68,37.06L55.65,29.02L55.65,23.45Z" fill="#29383e" stroke="#29383e" stroke-width=".35" stroke-linejoin="round"/><path d="M28.20,38.56L38.18,33.19L38.18,22.92Z" fill="#4c5a62" stroke="#4c5a62" stroke-width=".35" stroke-linejoin="round"/><path d="M50.10,18.03L35.13,26.07L55.65,23.45Z" fill="#33454c" stroke="#33454c" stroke-width=".35" stroke-linejoin="round"/><path d="M35.13,31.64L40.68,37.06L40.68,31.50Z" fill="#2f4147" stroke="#2f4147" stroke-width=".35" stroke-linejoin="round"/><path d="M35.13,26.07L35.13,31.64L40.68,31.50Z" fill="#2f4147" stroke="#2f4147" stroke-width=".35" stroke-linejoin="round"/><path d="M11.92,12.37L28.20,28.29L38.18,22.92Z" fill="#5c6c76" stroke="#5c6c76" stroke-width=".35" stroke-linejoin="round"/><path d="M40.68,31.50L40.68,37.06L55.65,23.45Z" fill="#29383e" stroke="#29383e" stroke-width=".35" stroke-linejoin="round"/><path d="M35.13,26.07L40.68,31.50L55.65,23.45Z" fill="#33454c" stroke="#33454c" stroke-width=".35" stroke-linejoin="round"/><path d="M28.20,28.29L28.20,38.56L38.18,22.92Z" fill="#4c5a62" stroke="#4c5a62" stroke-width=".35" stroke-linejoin="round"/><path d="M32.75,55.57L50.22,46.18L50.22,31.20Z" fill="#6093a0" stroke="#6093a0" stroke-width=".35" stroke-linejoin="round"/><path d="M28.68,51.59L32.75,55.57L32.75,40.59Z" fill="#6da6b4" stroke="#6da6b4" stroke-width=".35" stroke-linejoin="round"/><path d="M46.15,27.22L28.68,36.61L50.22,31.20Z" fill="#73afbe" stroke="#73afbe" stroke-width=".35" stroke-linejoin="round"/><path d="M32.75,40.59L32.75,55.57L50.22,31.20Z" fill="#6093a0" stroke="#6093a0" stroke-width=".35" stroke-linejoin="round"/><path d="M28.68,36.61L28.68,51.59L32.75,40.59Z" fill="#6da6b4" stroke="#6da6b4" stroke-width=".35" stroke-linejoin="round"/><path d="M33.48,18.98L19.51,26.50L77.89,62.41Z" fill="#516a72" stroke="#516a72" stroke-width=".35" stroke-linejoin="round"/><path d="M19.51,26.50L19.51,38.48L63.91,69.92Z" fill="#4c646c" stroke="#4c646c" stroke-width=".35" stroke-linejoin="round"/><path d="M28.68,36.61L32.75,40.59L50.22,31.20Z" fill="#73afbe" stroke="#73afbe" stroke-width=".35" stroke-linejoin="round"/><path d="M46.07,68.60L63.54,59.21L63.54,44.23Z" fill="#6093a0" stroke="#6093a0" stroke-width=".35" stroke-linejoin="round"/><path d="M35.52,49.30L32.03,51.17L44.40,57.98Z" fill="#98b4bd" stroke="#98b4bd" stroke-width=".35" stroke-linejoin="round"/><path d="M32.03,51.17L32.03,54.17L40.91,59.86Z" fill="#90aab3" stroke="#90aab3" stroke-width=".35" stroke-linejoin="round"/><path d="M42.00,64.62L46.07,68.60L46.07,53.62Z" fill="#6da6b4" stroke="#6da6b4" stroke-width=".35" stroke-linejoin="round"/><path d="M32.03,54.17L40.91,62.85L40.91,59.86Z" fill="#90aab3" stroke="#90aab3" stroke-width=".35" stroke-linejoin="round"/><path d="M19.51,38.48L63.91,81.90L63.91,69.92Z" fill="#4c646c" stroke="#4c646c" stroke-width=".35" stroke-linejoin="round"/><path d="M32.03,51.17L40.91,59.86L44.40,57.98Z" fill="#98b4bd" stroke="#98b4bd" stroke-width=".35" stroke-linejoin="round"/><path d="M40.91,62.85L44.40,60.98L44.40,57.98Z" fill="#7f979e" stroke="#7f979e" stroke-width=".35" stroke-linejoin="round"/><path d="M59.47,40.25L42.00,49.64L63.54,44.23Z" fill="#73afbe" stroke="#73afbe" stroke-width=".35" stroke-linejoin="round"/><path d="M46.07,53.62L46.07,68.60L63.54,44.23Z" fill="#6093a0" stroke="#6093a0" stroke-width=".35" stroke-linejoin="round"/><path d="M42.00,49.64L42.00,64.62L46.07,53.62Z" fill="#6da6b4" stroke="#6da6b4" stroke-width=".35" stroke-linejoin="round"/><path d="M40.91,59.86L40.91,62.85L44.40,57.98Z" fill="#7f979e" stroke="#7f979e" stroke-width=".35" stroke-linejoin="round"/><path d="M42.00,49.64L46.07,53.62L63.54,44.23Z" fill="#73afbe" stroke="#73afbe" stroke-width=".35" stroke-linejoin="round"/><path d="M19.51,26.50L63.91,69.92L77.89,62.41Z" fill="#516a72" stroke="#516a72" stroke-width=".35" stroke-linejoin="round"/><path d="M63.91,81.90L77.89,74.39L77.89,62.41Z" fill="#42585f" stroke="#42585f" stroke-width=".35" stroke-linejoin="round"/><path d="M65.12,89.00L84.08,78.81L84.08,62.54Z" fill="#1f313b" stroke="#1f313b" stroke-width=".35" stroke-linejoin="round"/><path d="M69.91,85.39L81.88,78.95L81.88,68.68Z" fill="#43789a" stroke="#43789a" stroke-width=".35" stroke-linejoin="round"/><path d="M63.91,69.92L63.91,81.90L77.89,62.41Z" fill="#42585f" stroke="#42585f" stroke-width=".35" stroke-linejoin="round"/><path d="M58.46,82.49L65.12,89.00L65.12,72.74Z" fill="#243944" stroke="#243944" stroke-width=".35" stroke-linejoin="round"/><path d="M68.05,83.58L69.91,85.39L69.91,75.12Z" fill="#4d88ae" stroke="#4d88ae" stroke-width=".35" stroke-linejoin="round"/><path d="M77.42,56.03L58.46,66.22L84.08,62.54Z" fill="#273c48" stroke="#273c48" stroke-width=".35" stroke-linejoin="round"/><path d="M58.46,66.22L58.46,82.49L65.12,72.74Z" fill="#243944" stroke="#243944" stroke-width=".35" stroke-linejoin="round"/><path d="M69.91,75.12L69.91,85.39L81.88,68.68Z" fill="#43789a" stroke="#43789a" stroke-width=".35" stroke-linejoin="round"/><path d="M80.03,66.87L68.05,73.31L81.88,68.68Z" fill="#5190b8" stroke="#5190b8" stroke-width=".35" stroke-linejoin="round"/><path d="M65.12,72.74L65.12,89.00L84.08,62.54Z" fill="#1f313b" stroke="#1f313b" stroke-width=".35" stroke-linejoin="round"/><path d="M68.05,73.31L68.05,83.58L69.91,75.12Z" fill="#4d88ae" stroke="#4d88ae" stroke-width=".35" stroke-linejoin="round"/><path d="M68.05,73.31L69.91,75.12L81.88,68.68Z" fill="#5190b8" stroke="#5190b8" stroke-width=".35" stroke-linejoin="round"/><path d="M58.46,66.22L65.12,72.74L84.08,62.54Z" fill="#273c48" stroke="#273c48" stroke-width=".35" stroke-linejoin="round"/></svg>