<svg xmlns="http://www.w3.org/2000/svg" viewBox="0 0 96 96" role="img"><title>mountain:marble</title><path d="M23.12,32.84L23.12,68.29L44.31,89.00Z" fill="#b3b2a4" stroke="#b3b2a4" stroke-width=".35" stroke-linejoin="round"/><path d="M44.31,49.38L44.31,89.00L72.88,73.64Z" fill="#9e9d91" stroke="#9e9d91" stroke-width=".35" stroke-linejoin="round"/><path d="M44.31,49.38L72.88,73.64L72.88,30.08Z" fill="#9e9d91" stroke="#9e9d91" stroke-width=".35" stroke-linejoin="round"/><path d="M23.12,32.84L44.31,89.00L44.31,49.38Z" fill="#b3b2a4" stroke="#b3b2a4" stroke-width=".35" stroke-linejoin="round"/><path d="M37.05,12.54L23.12,32.84L44.31,49.38Z" fill="#bbbaac" stroke="#bbbaac" stroke-width=".35" stroke-linejoin="round"/><path d="M37.05,12.54L58.95,11.13L49.63,7.00Z" fill="#bebdae" stroke="#bebdae" stroke-width=".35" stroke-linejoin="round"/><path d="M46.37,19.67L44.31,49.38L72.88,30.08Z" fill="#9e9d91" stroke="#9e9d91" stroke-width=".35" stroke-linejoin="round"/><path d="M46.37,19.67L72.88,30.08L58.95,11.13Z" fill="#9e9d91" stroke="#9e9d91" stroke-width=".35" stroke-linejoin="round"/><path d="M37.05,12.54L44.31,49.38L46.37,19.67Z" fill="#bbbaac" stroke="#bbbaac" stroke-width=".35" stroke-linejoin="round"/><path d="M37.05,12.54L46.37,19.67L58.95,11.13Z" fill="#c1c0b1" stroke="#c1c0b1" stroke-width=".35" stroke-linejoin="round"/></svg>